<?xml version="1.0" standalone="no"?>
<!DOCTYPE svg PUBLIC "-//W3C//DTD SVG 20010904//EN"
 "http://www.w3.org/TR/2001/REC-SVG-20010904/DTD/svg10.dtd">
<svg version="1.0" xmlns="http://www.w3.org/2000/svg"
 width="481.000000pt" height="519.000000pt" viewBox="0 0 481.000000 519.000000"
 preserveAspectRatio="xMidYMid meet">
<metadata>
Created by potrace 1.10, written by Peter Selinger 2001-2011
</metadata>
<g transform="translate(0.000000,519.000000) scale(0.050000,-0.050000)"
fill="#000000" stroke="none">
<path d="M4470 10357 c-99 -9 -223 -17 -275 -18 -52 -1 -95 -9 -95 -18 0 -10
-17 -13 -38 -7 -43 11 -471 -99 -591 -153 -45 -20 -138 -55 -208 -79 -165 -56
-747 -366 -871 -463 -12 -10 -53 -43 -92 -75 -38 -31 -101 -78 -140 -104 -134
-92 -649 -557 -634 -573 3 -3 -60 -75 -140 -160 -80 -85 -146 -161 -146 -171
0 -9 -14 -32 -31 -51 -74 -83 -275 -359 -290 -399 -10 -24 -53 -96 -96 -160
-107 -157 -453 -874 -471 -977 -5 -24 -50 -174 -102 -332 -106 -326 -170 -607
-182 -797 -4 -71 -17 -197 -27 -280 -24 -194 -24 -901 0 -1120 11 -93 23 -227
27 -297 5 -70 17 -136 29 -148 11 -11 15 -32 10 -46 -17 -43 66 -321 228 -769
6 -16 12 -48 15 -69 2 -21 14 -42 27 -47 13 -4 19 -15 13 -24 -6 -9 39 -109
100 -222 60 -113 110 -211 110 -219 0 -8 14 -20 31 -27 17 -6 26 -20 20 -31
-7 -11 4 -36 23 -57 20 -21 39 -49 42 -64 8 -32 76 -132 134 -194 50 -54 120
-152 120 -168 0 -7 54 -68 120 -136 66 -68 123 -132 126 -142 4 -10 83 -78
175 -152 93 -73 169 -141 169 -151 0 -9 13 -17 28 -17 15 0 33 -14 40 -31 6
-17 20 -26 31 -20 11 7 38 -6 60 -28 23 -23 41 -36 41 -30 0 6 29 -11 65 -37
36 -27 103 -69 150 -95 47 -25 85 -55 85 -66 0 -11 5 -15 11 -9 6 6 91 -24
189 -66 98 -42 239 -96 314 -120 75 -24 145 -49 156 -57 39 -26 391 -98 553
-113 437 -39 861 -14 1267 77 55 13 109 24 120 25 93 9 566 182 775 284 75 36
141 66 148 66 28 0 470 279 637 401 352 258 667 557 949 899 58 72 114 133
124 137 9 3 17 18 17 32 0 13 18 41 40 61 22 20 40 46 40 58 0 12 27 51 61 87
121 129 452 740 598 1105 37 94 74 179 82 190 30 41 239 855 280 1092 90 512
55 1670 -60 2025 -12 35 -49 158 -83 273 -129 439 -332 888 -537 1190 -30 44
-79 121 -109 170 l-54 90 63 -70 c35 -38 107 -137 161 -220 53 -82 113 -172
132 -200 20 -27 56 -90 80 -140 25 -49 53 -103 63 -120 24 -42 94 -192 144
-310 43 -102 64 -163 131 -385 21 -69 43 -125 49 -125 6 0 29 -14 50 -31 37
-30 37 -30 -8 -8 -41 20 -46 18 -36 -14 244 -873 217 -2067 -67 -2915 -33 -98
-60 -193 -60 -210 0 -55 -273 -714 -341 -822 -10 -16 -49 -88 -87 -160 -37
-71 -92 -164 -120 -206 -29 -42 -52 -80 -52 -85 0 -12 -164 -256 -181 -269 -7
-5 -47 -59 -89 -120 -41 -60 -96 -132 -122 -160 -25 -27 -117 -131 -205 -230
-88 -99 -221 -234 -294 -300 -74 -66 -167 -150 -207 -187 -39 -36 -103 -87
-142 -112 -38 -25 -110 -79 -158 -119 -48 -41 -129 -97 -180 -126 -51 -29
-105 -64 -122 -77 -66 -53 -501 -270 -680 -338 -104 -40 -217 -86 -250 -101
-93 -42 -613 -147 -870 -176 -38 -4 52 -9 200 -11 149 -1 351 7 450 18 99 12
210 24 246 27 36 4 71 12 78 19 6 7 33 7 59 0 29 -7 47 -3 47 12 0 13 8 18 18
12 24 -15 222 31 222 52 0 9 12 11 26 6 27 -11 295 86 397 142 29 16 67 29 83
29 29 0 494 233 514 258 6 7 44 29 85 50 41 21 75 46 75 56 0 10 8 13 19 7 10
-7 28 4 39 24 12 19 21 28 21 19 1 -17 10 -10 131 92 44 37 134 106 200 154
119 87 690 649 690 680 0 9 38 64 85 123 47 59 125 166 174 237 49 72 96 133
105 137 9 3 16 18 16 33 0 15 8 30 18 33 30 11 327 584 328 632 0 14 8 25 16
25 16 0 49 80 42 105 -2 8 5 15 16 15 11 0 20 18 20 41 0 23 12 65 27 95 16
30 57 144 92 254 36 110 72 218 81 240 32 80 63 214 52 225 -7 6 -3 22 9 36
11 13 23 59 28 102 4 42 27 208 51 367 57 383 61 997 9 1350 -20 132 -34 265
-33 295 1 30 -7 55 -18 55 -11 0 -15 8 -9 19 17 27 -48 301 -72 301 -11 0 -14
9 -7 20 11 18 -107 367 -150 445 -11 19 -20 53 -20 75 0 22 -10 40 -21 40 -12
0 -16 9 -9 20 7 11 2 20 -10 20 -12 0 -17 8 -11 19 6 10 -16 65 -50 122 -34
58 -88 155 -121 217 -95 181 -139 250 -173 277 -18 14 -26 25 -18 25 24 0
-103 174 -136 187 -17 6 -31 25 -31 42 0 16 -56 84 -124 152 -68 67 -134 141
-145 165 -12 24 -41 53 -64 64 -23 12 -67 50 -97 86 -30 36 -69 62 -87 59 -19
-3 -32 9 -33 29 0 19 -81 107 -180 196 -99 89 -203 184 -230 211 -28 27 -59
49 -70 49 -11 0 -32 18 -46 41 -14 22 -33 36 -43 30 -9 -6 -22 3 -28 19 -7 17
-26 30 -42 30 -17 0 -31 8 -31 18 0 9 -61 56 -135 103 -74 46 -157 100 -185
118 -163 109 -937 390 -1040 378 -16 -2 -43 2 -60 9 -33 13 -640 56 -720 51
-27 -2 -131 -10 -230 -20z m1005 -106 c405 -85 619 -164 1031 -383 309 -163
328 -199 124 -240 -55 -10 -254 -90 -284 -113 -17 -13 -36 -8 -58 14 -47 47
-188 116 -188 91 0 -11 10 -20 22 -20 11 0 68 -31 125 -68 56 -38 139 -85 183
-104 44 -20 94 -48 110 -61 17 -14 42 -18 56 -9 20 12 19 21 -5 41 -23 19 -31
20 -31 2 0 -13 -9 -18 -20 -11 -12 7 -15 21 -9 31 6 11 0 20 -15 21 -14 1 5 9
42 18 73 17 122 8 122 -23 0 -11 -9 -14 -20 -7 -11 7 -20 -3 -20 -21 0 -44 53
-4 71 54 8 25 24 36 42 29 16 -6 24 -4 18 6 -5 9 12 17 40 17 28 0 46 -4 41
-10 -6 -5 3 -23 19 -39 16 -16 29 -37 29 -47 0 -22 -65 0 -85 30 -20 30 -19
-12 2 -45 9 -14 25 -25 35 -23 43 8 68 -3 68 -31 0 -16 9 -30 20 -30 27 0 25
27 -4 56 -51 51 42 12 138 -58 25 -18 40 -37 35 -43 -6 -5 18 -15 53 -22 69
-14 118 -46 118 -78 0 -11 -16 -15 -36 -10 -19 5 -47 -4 -62 -19 -33 -37 -12
-59 26 -28 17 15 33 16 40 5 7 -11 1 -24 -13 -30 -16 -6 -13 -10 8 -11 19 -1
38 9 43 23 17 45 68 -46 57 -103 -8 -47 -6 -49 24 -25 30 25 41 18 36 -21 -1
-7 13 -11 32 -8 48 8 105 -55 83 -91 -10 -15 -17 -72 -16 -127 1 -55 6 -86 13
-70 6 17 21 37 33 45 15 10 14 14 -3 15 -14 0 -25 16 -24 35 0 29 7 27 40 -12
21 -26 39 -40 40 -30 0 9 9 1 21 -18 11 -19 33 -35 49 -35 16 0 29 -8 29 -19
0 -10 11 -22 25 -27 14 -4 9 -6 -10 -3 -19 3 -40 -3 -46 -13 -11 -17 32 -27
88 -19 15 2 21 -6 14 -18 -7 -12 -38 -16 -67 -10 -43 9 -47 7 -21 -10 18 -11
51 -23 74 -27 68 -10 75 -34 10 -34 -32 0 -69 10 -81 22 -12 12 -35 18 -49 12
-18 -8 -11 -16 20 -25 31 -10 38 -20 23 -29 -18 -11 -18 -19 -2 -29 12 -7 22
-4 22 8 0 11 14 21 32 21 22 0 28 -11 20 -35 -12 -33 -11 -33 15 0 34 43 56
46 40 5 -8 -22 -2 -27 21 -18 17 7 32 2 32 -10 0 -12 -20 -23 -45 -25 -26 -1
-11 -9 35 -19 76 -14 74 -15 -25 -10 -58 4 -105 -2 -105 -11 0 -18 54 -25 150
-19 47 3 53 -1 30 -17 -26 -18 -25 -20 5 -21 19 0 35 -10 35 -21 0 -13 -17
-16 -41 -9 -77 25 -179 30 -179 10 0 -11 36 -20 80 -20 44 0 80 -9 80 -19 0
-11 -13 -15 -30 -8 -16 6 -30 1 -30 -11 0 -13 16 -29 35 -36 19 -8 45 -27 57
-43 12 -16 36 -24 52 -18 16 6 42 3 58 -7 24 -15 23 -17 -2 -18 -23 0 -24 -4
-5 -17 19 -11 12 -23 -25 -43 -69 -37 -63 -59 15 -51 36 3 45 2 20 -3 -25 -5
-41 -16 -35 -26 6 -9 3 -22 -7 -28 -9 -6 -29 12 -43 39 -27 49 -60 66 -60 30
0 -10 15 -27 32 -37 94 -53 27 -223 -87 -224 -69 0 -91 -46 -33 -68 23 -9 28
-27 18 -72 -9 -40 -5 -60 11 -60 13 0 19 12 13 26 -5 15 6 27 28 29 22 1 38
-10 38 -27 0 -17 -9 -25 -20 -18 -11 7 -15 -1 -8 -17 7 -18 -3 -33 -26 -39
-22 -6 -12 -10 25 -12 68 -2 79 46 29 138 -15 28 -27 55 -28 60 -1 6 -13 10
-26 10 -13 0 -30 7 -38 15 -8 8 5 15 28 15 34 0 160 46 202 74 5 3 -8 24 -28
46 -35 39 -35 40 17 40 51 0 53 -4 44 -90 -8 -77 12 -123 32 -74 4 9 22 1 40
-18 30 -31 26 -35 -50 -58 -59 -17 -84 -18 -89 -2 -11 32 -57 27 -57 -7 0 -15
18 -29 41 -29 117 -3 141 0 155 23 12 20 20 20 40 0 20 -20 18 -25 -9 -25 -27
0 -34 -19 -34 -96 l0 -96 -100 -21 c-96 -19 -100 -18 -100 24 0 35 -11 44 -50
42 -56 -3 -70 -53 -15 -53 29 -1 30 -4 6 -19 -36 -23 -28 -31 46 -49 35 -8 52
-6 44 6 -6 11 4 20 24 20 19 0 60 6 90 13 48 12 55 8 58 -34 2 -47 2 -47 11
-2 5 28 18 40 32 32 16 -8 16 -4 -1 14 -33 35 -32 59 3 59 36 0 53 -46 31 -82
-10 -15 -14 -42 -8 -60 5 -18 -4 -44 -20 -57 -17 -14 -26 -34 -20 -43 6 -10 2
-18 -10 -18 -11 0 -22 16 -22 35 -2 30 -4 29 -18 -5 -37 -92 43 -79 91 14 17
33 36 55 42 48 7 -6 0 -25 -14 -42 -20 -24 -20 -30 3 -30 15 -1 -2 -19 -38
-42 -74 -48 -76 -51 -35 -51 17 0 30 8 30 18 0 9 10 11 23 3 13 -8 18 -5 10 7
-7 11 10 25 38 30 49 9 50 9 15 -31 -20 -23 -25 -34 -11 -26 52 30 71 -13 23
-50 -45 -35 -45 -37 -8 -39 27 -1 17 -10 -29 -27 l-70 -25 65 -23 c56 -19 64
-31 64 -95 0 -56 -7 -71 -29 -62 -20 7 -25 1 -17 -19 6 -17 24 -26 39 -20 15
6 27 -2 27 -19 0 -16 -9 -29 -20 -29 -11 0 -20 -14 -20 -31 0 -17 7 -27 16
-22 9 6 17 -7 19 -28 1 -22 -7 -39 -18 -39 -11 0 -8 -12 7 -26 19 -20 24 -78
16 -232 -5 -113 -3 -210 5 -215 8 -5 14 -38 13 -73 0 -35 -6 -53 -11 -39 -17
41 -44 28 -33 -15 6 -22 19 -35 28 -29 10 6 18 -7 18 -30 0 -45 -20 -53 -54
-19 -15 15 -25 15 -35 0 -7 -12 0 -22 16 -22 33 0 27 -50 -19 -153 -33 -75
-35 -94 -8 -77 11 7 20 29 20 49 0 20 15 42 33 49 44 17 63 -5 26 -31 -22 -15
-23 -23 -4 -30 14 -6 25 -19 25 -29 0 -10 -11 -18 -25 -18 -16 0 -25 -29 -25
-80 0 -56 8 -78 25 -71 14 5 25 1 25 -10 0 -10 -13 -19 -29 -19 -18 0 -25 -12
-18 -30 11 -30 -15 -41 -40 -17 -7 8 -33 17 -58 20 -122 15 -142 22 -146 52
-3 20 5 28 23 21 20 -7 28 5 28 42 0 29 -9 52 -20 52 -11 0 -20 20 -20 44 0
41 1 42 27 7 25 -35 27 -35 39 9 8 33 21 42 48 33 26 -10 23 -2 -11 27 -26 22
-37 40 -25 40 12 0 22 8 22 19 0 10 -18 15 -40 11 -22 -4 -40 0 -40 10 0 9 -5
31 -12 48 -7 18 -2 32 10 32 12 0 22 -15 22 -34 0 -25 6 -28 22 -12 13 13 16
33 5 49 -33 53 -21 117 22 117 32 1 26 8 -24 33 -47 23 -65 46 -65 81 0 29 8
43 21 35 12 -7 17 -25 11 -40 -6 -15 -3 -32 7 -38 9 -6 21 7 27 29 6 22 2 40
-7 40 -10 0 -13 14 -6 30 6 17 1 30 -11 30 -35 0 -21 234 18 275 22 24 27 51
18 85 l-14 50 -2 -54 c-2 -48 -40 -102 -44 -62 0 9 -4 32 -8 51 -3 19 2 35 12
35 10 0 18 14 18 32 0 19 -11 28 -28 22 -42 -17 -48 -1 -32 87 12 65 9 79 -18
81 -24 1 -25 4 -5 12 23 9 23 14 0 28 -18 12 -2 17 48 18 62 0 75 -7 75 -40 0
-22 7 -40 17 -40 9 0 14 20 11 45 -2 25 -5 55 -6 67 -1 13 -38 29 -82 36 -78
12 -105 40 -55 57 14 5 0 13 -30 19 -38 7 -55 2 -55 -17 0 -15 10 -27 21 -27
12 0 16 -8 10 -19 -6 -10 3 -138 21 -285 53 -429 17 -1191 -71 -1496 -11 -38
-39 -151 -63 -250 -24 -99 -48 -193 -54 -208 -7 -20 -2 -24 18 -14 15 8 13 3
-5 -12 -18 -15 -39 -62 -45 -103 -7 -41 -25 -100 -40 -129 -15 -30 -60 -136
-99 -236 -80 -206 -285 -621 -362 -735 -28 -42 -46 -86 -38 -97 7 -12 5 -17
-6 -10 -11 6 -49 -35 -86 -92 -37 -57 -89 -131 -115 -164 -26 -33 -98 -123
-159 -200 -195 -247 -438 -488 -743 -737 -79 -65 -139 -125 -133 -134 5 -9 -1
-23 -14 -31 -14 -9 -18 -6 -9 9 8 13 2 23 -15 23 -16 0 -33 -7 -36 -15 -10
-22 -209 -151 -317 -205 -49 -25 -94 -52 -100 -60 -5 -8 -80 -48 -165 -90 -85
-41 -155 -84 -155 -95 0 -13 -9 -12 -25 1 -18 14 -48 9 -105 -20 -92 -46 -404
-146 -517 -165 -42 -8 -71 -19 -65 -26 18 -17 232 -18 232 -1 0 7 25 12 55 10
35 -3 53 5 50 21 -6 30 27 33 45 5 7 -11 4 -20 -7 -20 -10 0 -24 -13 -30 -30
-7 -19 0 -30 19 -30 17 0 25 9 18 20 -7 11 -3 20 9 20 12 0 32 22 44 49 29 64
74 80 117 41 32 -29 36 -29 47 -1 6 17 26 31 45 31 20 0 28 11 21 30 -7 17 -1
30 14 30 17 0 23 -19 18 -55 -4 -30 2 -77 14 -105 22 -50 22 -50 11 7 -17 83
4 131 51 119 49 -13 52 30 4 67 -30 23 -30 25 -2 16 18 -7 39 -2 46 10 8 12
23 16 33 10 11 -7 42 2 68 19 57 38 70 40 70 11 0 -12 -10 -15 -23 -7 -14 9
-18 5 -9 -9 27 -44 57 -24 46 32 l-10 55 41 -50 c25 -30 37 -36 29 -16 -7 19
-4 40 5 46 10 6 22 -10 27 -35 6 -32 9 -27 11 21 3 60 7 64 45 43 23 -12 47
-17 53 -11 6 7 1 12 -12 12 -40 0 -25 29 29 54 44 20 50 19 40 -6 -7 -17 -3
-25 8 -18 11 7 20 28 21 46 0 20 12 10 29 -26 20 -43 27 -49 26 -20 -1 22 -1
55 1 73 4 38 140 115 181 101 16 -5 23 2 17 18 -12 34 19 98 47 98 11 0 13
-11 4 -25 -35 -56 -66 -168 -34 -125 16 22 36 37 43 33 8 -3 18 5 22 18 5 15
-1 19 -17 9 -17 -10 -22 -6 -16 12 6 15 26 25 45 22 22 -4 30 2 21 16 -8 13 4
36 26 52 23 15 47 55 54 88 12 57 19 60 112 60 l98 0 0 70 c0 72 16 86 54 48
15 -15 18 -7 12 28 -8 41 0 50 56 61 68 14 111 -17 79 -56 -11 -14 3 -22 41
-23 32 -1 58 5 58 15 0 9 14 17 31 17 18 0 25 10 18 22 -7 12 -30 17 -50 12
-21 -5 -53 3 -73 18 -43 33 -11 61 114 100 l70 22 -65 15 c-86 19 -84 58 3 47
64 -7 66 -5 47 38 -18 38 -13 52 32 87 29 23 53 54 53 70 0 16 12 23 30 16 17
-6 30 -1 30 11 0 12 -9 22 -20 22 -11 0 -20 10 -20 21 0 12 8 16 18 10 11 -6
23 4 28 24 7 27 10 24 12 -10 1 -25 10 -45 20 -45 10 0 17 11 17 25 -4 87 8
125 25 85 16 -38 17 -38 19 5 0 25 11 45 22 45 12 0 19 20 15 45 -4 28 5 45
22 45 16 0 33 13 38 28 6 17 0 22 -13 14 -13 -8 -23 -5 -23 7 0 11 18 21 39
21 21 0 47 15 58 33 20 37 83 55 83 25 0 -10 10 -18 21 -18 12 0 16 8 10 18
-17 28 10 82 41 82 15 0 28 4 28 8 0 5 5 22 11 38 8 20 0 29 -25 27 -23 -2
-38 13 -42 42 -5 31 3 45 26 45 19 0 39 19 45 41 6 25 21 37 38 31 15 -6 27
-2 27 9 0 10 -9 19 -20 19 -11 0 -20 10 -20 22 0 12 13 17 30 11 16 -6 28 -5
26 3 -7 30 28 144 49 157 13 8 15 4 5 -13 -11 -17 -8 -21 7 -12 13 8 19 22 13
32 -15 24 11 82 32 69 10 -6 12 3 6 20 -7 18 -2 31 12 31 15 0 21 19 15 49 -5
30 1 53 18 59 15 6 27 29 27 51 0 23 9 41 19 41 11 0 15 12 10 26 -6 14 5 62
24 105 19 43 36 88 37 99 1 11 12 18 25 15 14 -3 20 25 15 80 -4 47 -1 72 5
55 29 -75 59 -77 57 -4 -1 41 -11 81 -22 89 -11 8 -5 15 15 15 21 0 47 29 65
72 35 86 37 94 10 78 -26 -16 -52 50 -26 67 48 31 84 143 46 143 -11 0 -20
-16 -20 -35 -1 -28 -4 -29 -18 -7 -26 40 16 77 74 66 48 -9 48 -9 15 53 l-32
63 75 3 76 4 -75 8 c-41 4 -75 16 -75 26 0 11 34 19 75 19 41 0 89 9 105 20
21 14 -1 17 -70 9 -72 -7 -89 -4 -60 9 36 17 36 19 4 21 -55 2 -19 41 37 41
32 0 49 11 49 32 0 22 -12 29 -39 23 -22 -6 -43 1 -49 17 -8 21 1 25 36 17 74
-19 84 29 12 54 -62 22 -62 22 -19 52 31 22 48 24 65 7 16 -16 12 -22 -17 -23
-49 -2 19 -36 71 -36 19 0 15 6 -10 17 -26 11 -30 18 -10 18 54 2 95 -35 62
-56 -22 -14 -15 -20 28 -25 31 -4 61 -20 66 -35 6 -17 0 -22 -13 -14 -14 8
-23 1 -23 -17 0 -19 -18 -31 -45 -32 -25 0 -72 -13 -105 -28 -59 -26 -59 -26
28 -16 93 12 117 -38 25 -51 -23 -4 -43 -16 -43 -28 0 -11 17 -16 38 -11 28 8
41 -2 47 -36 5 -26 4 -45 -3 -43 -27 8 -102 -78 -100 -115 1 -30 4 -33 13 -11
12 33 45 59 74 60 10 0 5 -11 -12 -25 -37 -29 -63 -95 -39 -95 10 0 22 -20 29
-45 10 -42 9 -42 -16 -9 -31 41 -57 16 -40 -39 6 -23 1 -19 -13 8 -30 56 -58
58 -58 4 0 -27 8 -36 23 -27 16 10 20 4 12 -17 -7 -18 -4 -35 6 -39 11 -3 24
-28 29 -54 5 -26 3 -42 -4 -35 -7 7 -26 1 -43 -12 -26 -21 -28 -19 -17 10 11
29 7 31 -24 11 -23 -14 -36 -44 -35 -78 2 -53 4 -54 40 -22 35 32 37 32 30
-15 -5 -33 -24 -53 -57 -61 l-50 -12 47 -13 c28 -7 41 -21 33 -34 -7 -13 -31
-17 -52 -10 -21 6 -38 3 -38 -8 0 -11 -11 -24 -25 -29 -14 -4 -9 -6 10 -3 42
6 63 -22 42 -56 -9 -14 -18 -38 -20 -55 -3 -16 -14 -32 -26 -36 -12 -4 -21
-21 -21 -37 0 -16 -8 -24 -18 -18 -9 6 -30 -4 -45 -23 -24 -29 -22 -32 16 -22
37 10 41 5 28 -41 -9 -32 -27 -51 -46 -48 -34 6 -66 -55 -38 -73 11 -7 10 -32
-2 -62 -18 -48 -20 -48 -36 -10 -17 42 -20 36 -26 -53 -2 -30 2 -50 9 -46 8 5
19 -4 24 -19 8 -19 -1 -24 -27 -17 -34 8 -43 -2 -38 -46 1 -7 -23 -35 -53 -63
-45 -42 -51 -57 -32 -87 17 -27 16 -41 -7 -60 -16 -13 -30 -48 -31 -76 l-2
-53 -16 50 c-15 46 -16 45 -18 -18 -2 -77 -20 -76 -26 1 -4 52 -69 76 -69 26
0 -16 12 -29 26 -29 38 0 33 -36 -13 -95 -28 -35 -34 -58 -20 -74 13 -17 10
-24 -10 -24 -17 0 -30 8 -30 18 0 9 -9 12 -20 5 -12 -7 -15 -21 -9 -31 6 -11
5 -29 -2 -41 -10 -16 -19 -14 -31 5 -13 21 -17 21 -18 1 0 -14 14 -30 30 -37
17 -6 30 -24 30 -40 0 -16 -9 -24 -21 -16 -11 7 -34 2 -50 -12 -18 -15 -29
-16 -29 -3 0 11 11 25 25 31 19 8 17 17 -6 37 -17 14 -28 44 -25 66 4 30 0 27
-15 -10 -17 -40 -24 -44 -40 -20 -16 26 -19 26 -20 0 -1 -21 -8 -17 -20 10
-19 40 -19 40 -13 0 4 -22 18 -37 33 -34 17 4 23 -8 15 -35 -5 -23 -2 -41 8
-41 10 0 19 20 20 45 1 25 10 6 19 -42 15 -74 12 -93 -23 -130 l-41 -43 -36
44 c-20 24 -42 39 -49 32 -22 -22 -13 -46 18 -46 17 0 30 -9 30 -20 0 -11 14
-20 30 -20 17 0 30 -13 30 -28 0 -22 -16 -20 -74 10 -65 33 -77 34 -91 8 -9
-17 -26 -30 -37 -30 -11 0 -14 10 -6 23 8 13 3 19 -14 13 -15 -5 -27 -20 -26
-33 1 -13 3 -46 5 -74 2 -31 11 -46 25 -38 12 7 17 30 12 51 -7 27 0 38 26 38
20 0 53 6 73 13 26 10 22 1 -13 -29 l-50 -43 50 -1 c42 -1 36 -7 -37 -40 -51
-23 -91 -57 -98 -81 -7 -29 -22 -39 -48 -32 -20 5 -42 1 -48 -9 -7 -10 -20
-13 -30 -7 -11 6 -19 -12 -19 -40 0 -46 6 -50 55 -40 47 9 43 4 -22 -32 -43
-23 -82 -60 -88 -81 -5 -21 -27 -38 -50 -38 -35 0 -37 -4 -12 -35 25 -32 24
-32 -25 -1 -55 35 -115 -54 -100 -151 3 -23 -3 -32 -16 -24 -28 17 -28 77 0
105 15 15 15 26 -3 37 -16 10 -20 7 -11 -8 8 -13 5 -23 -7 -23 -11 0 -22 -34
-23 -75 0 -41 -6 -64 -11 -50 -17 42 -47 28 -47 -23 0 -50 -79 -55 -81 -5 0
13 -13 1 -29 -27 -34 -60 -37 -80 -10 -80 11 0 20 19 20 41 0 23 9 36 20 29
30 -19 25 -35 -31 -96 -59 -63 -88 -57 -74 16 6 29 0 50 -13 50 -12 0 -22 -18
-22 -40 0 -27 -13 -40 -41 -40 -22 0 -39 -11 -38 -25 9 -64 -2 -93 -31 -82
-21 8 -30 -2 -30 -30 0 -30 -9 -38 -31 -30 -21 8 -35 -2 -43 -30 -6 -24 -24
-43 -40 -43 -15 0 -24 7 -18 16 5 9 1 29 -9 45 -13 21 -18 11 -19 -36 0 -60
-4 -65 -50 -53 -49 12 -66 -22 -51 -100 2 -10 -11 -7 -29 8 -17 14 -27 38 -22
53 6 15 2 27 -9 27 -10 0 -19 -15 -19 -33 0 -19 -6 -28 -13 -21 -17 17 -67
-24 -67 -53 0 -13 10 -9 22 7 21 30 50 1 35 -34 -18 -40 -77 -16 -79 32 -2 34
-6 40 -12 17 -5 -19 -17 -35 -27 -35 -11 0 -19 -24 -19 -54 0 -40 -6 -48 -23
-31 -28 28 -87 -23 -65 -58 9 -14 5 -18 -9 -9 -13 8 -24 43 -25 78 -2 39 -6
48 -11 24 -5 -22 -13 -60 -18 -84 -14 -67 -69 -35 -71 41 0 35 -6 50 -13 33
-6 -16 -21 -37 -33 -45 -14 -10 -15 -20 -2 -30 31 -24 29 -83 -2 -71 -16 6
-28 23 -28 38 0 44 -40 33 -58 -17 -11 -29 -9 -50 6 -60 13 -8 3 -15 -23 -15
-25 0 -45 -10 -45 -22 0 -13 -21 -19 -50 -13 -27 5 -50 1 -50 -9 0 -10 -11
-12 -25 -3 -34 21 -95 24 -95 4 0 -10 9 -17 20 -17 45 0 15 -32 -48 -52 -67
-20 -68 -20 -50 27 10 26 17 72 16 101 -2 39 -5 43 -11 14 -23 -115 -54 -182
-84 -186 -18 -2 -50 -6 -71 -9 -27 -3 -39 8 -42 40 -2 25 -10 52 -19 60 -8 8
-13 -12 -11 -45 7 -95 -3 -125 -20 -60 l-15 60 -15 -66 c-14 -58 -22 -65 -71
-57 -82 13 -102 31 -90 80 6 24 -2 17 -17 -16 -24 -52 -29 -54 -37 -20 -8 30
-11 27 -13 -14 -2 -44 5 -51 38 -43 25 7 40 1 40 -15 0 -14 -6 -20 -13 -13 -7
8 -25 4 -39 -8 -41 -34 -65 -4 -59 72 3 38 -3 64 -13 58 -10 -6 -13 -27 -7
-46 20 -61 -34 -111 -88 -82 -28 14 -51 17 -59 5 -29 -44 -102 -43 -104 2 -2
32 -5 34 -12 9 -5 -20 -21 -29 -37 -23 -16 6 -29 2 -29 -9 0 -10 -22 -24 -50
-29 -33 -6 -50 0 -50 17 0 14 -11 32 -23 40 -16 10 -20 4 -11 -19 7 -18 4 -33
-7 -33 -10 0 -19 9 -19 20 0 11 -10 20 -21 20 -12 0 -15 -10 -8 -21 9 -15 -22
-19 -99 -13 -62 5 -112 1 -112 -8 0 -10 -34 -17 -75 -15 l-75 2 70 13 70 13
-73 13 c-40 7 -109 8 -154 2 -57 -8 -97 -1 -132 21 -48 32 -111 26 -111 -9 0
-10 -16 -18 -35 -18 -28 1 -30 4 -7 18 31 20 -13 82 -63 89 -14 2 -36 11 -50
20 -16 10 -25 4 -25 -17 0 -18 8 -27 19 -21 10 6 24 2 31 -9 7 -11 21 -15 31
-9 11 6 19 1 19 -12 0 -13 -14 -18 -32 -11 -17 7 -45 12 -61 12 -22 0 -28 19
-22 75 6 61 15 74 46 69 31 -4 33 -1 11 13 -37 25 -87 5 -74 -30 6 -15 2 -27
-9 -27 -10 0 -19 -23 -19 -51 0 -30 -9 -46 -20 -39 -12 7 -16 21 -10 30 6 9 2
23 -10 30 -11 7 -20 -2 -20 -20 0 -42 -38 -19 -60 37 -13 31 -18 34 -19 10 -1
-40 -61 -68 -61 -28 0 15 11 32 25 38 14 5 -4 6 -40 3 -40 -5 -65 2 -65 16 0
14 -8 12 -19 -5 -16 -25 -21 -24 -33 6 -11 29 -17 31 -32 10 -13 -19 -16 -10
-10 27 4 30 1 51 -7 45 -9 -5 -21 2 -27 16 -6 14 -7 5 0 -20 6 -26 1 -45 -11
-45 -11 0 -21 9 -21 19 0 11 -13 15 -30 8 -17 -6 -35 2 -42 20 -7 18 -48 37
-102 45 -65 9 -83 18 -63 32 20 14 15 17 -17 10 -27 -6 -48 2 -55 20 -6 17
-24 25 -39 19 -37 -14 -84 26 -98 83 -9 39 -5 44 33 33 43 -13 43 -13 3 18
-45 36 -79 43 -60 13 23 -37 -50 -20 -84 19 -31 36 -35 37 -59 5 -23 -31 -26
-30 -26 12 -1 32 -9 42 -26 31 -17 -10 -16 -4 2 19 17 21 19 34 6 34 -11 0
-30 -16 -42 -35 -19 -32 -21 -31 -33 9 -6 24 -23 39 -37 34 -16 -7 -32 15 -41
56 -14 56 -17 59 -24 21 -5 -25 -20 -45 -34 -45 -36 0 -160 127 -133 136 35
12 -41 63 -93 63 -44 1 -96 64 -72 88 7 7 47 13 88 13 95 0 126 39 34 42 -36
2 -78 1 -94 -1 -17 -3 -23 7 -15 27 7 20 1 32 -16 32 -17 0 -25 -18 -22 -50 3
-27 -2 -50 -12 -50 -16 0 -21 11 -25 65 -3 35 -39 73 -58 61 -9 -6 -22 9 -28
32 -6 23 -18 37 -27 31 -9 -5 -42 24 -73 66 -31 41 -63 78 -71 82 -24 10 -17
63 7 63 16 0 16 8 -1 29 -18 21 -18 40 -1 75 l22 46 -39 -45 c-45 -52 -83 -59
-83 -15 0 17 9 30 21 30 11 0 2 20 -20 44 -23 24 -41 51 -41 60 0 9 -13 16
-29 16 -16 0 -35 10 -43 23 -9 14 -5 18 9 9 44 -28 22 19 -47 98 -38 44 -69
91 -70 105 0 14 -10 25 -22 25 -16 0 -14 10 3 31 21 26 21 30 -1 25 -37 -8
-51 65 -18 86 15 8 21 22 13 30 -8 7 -26 4 -41 -9 -21 -17 -27 -16 -27 6 0 16
7 25 16 19 9 -6 17 21 17 60 0 38 8 75 18 81 10 6 16 -13 12 -44 -3 -32 11
-75 35 -105 25 -30 36 -36 29 -15 -10 28 -1 35 44 35 49 0 55 -6 47 -50 -6
-30 0 -50 14 -50 13 0 18 9 11 20 -7 11 -3 20 9 20 19 0 29 -28 23 -65 -1 -8
9 -15 23 -15 17 -1 15 -7 -5 -22 -24 -17 -21 -20 15 -12 40 9 42 6 21 -33 -20
-38 -19 -40 9 -17 24 20 35 20 46 2 10 -15 7 -19 -8 -10 -14 9 -23 1 -23 -18
0 -18 8 -28 17 -22 9 6 34 -3 55 -20 21 -17 25 -24 10 -16 -19 9 -23 6 -13
-10 8 -13 24 -21 36 -17 28 9 38 75 11 69 -12 -2 -42 35 -68 84 -26 48 -58
100 -70 115 -13 15 -16 27 -7 27 8 0 0 16 -18 37 -18 20 -27 42 -20 50 8 7 5
13 -6 13 -11 0 -59 79 -106 175 -116 237 -133 267 -146 253 -7 -7 -3 -33 9
-58 18 -40 -66 -365 -119 -457 -16 -28 -44 32 -45 93 0 31 -9 74 -21 95 -15
28 -14 39 3 39 34 0 5 119 -38 158 -49 42 -68 97 -38 107 17 6 12 30 -16 82
-32 61 -42 67 -53 38 -8 -19 -15 -24 -16 -11 0 13 8 46 18 74 16 42 14 48 -13
38 -20 -8 -28 -5 -20 8 8 12 0 33 -16 46 -38 31 -38 73 -2 94 20 12 25 44 17
121 -10 106 -44 127 -46 29 -2 -48 -4 -50 -19 -14 -9 22 -12 72 -5 110 10 63
8 67 -22 43 -19 -17 -33 -19 -33 -7 0 22 77 84 104 84 8 0 10 -11 5 -25 -6
-16 21 -35 70 -50 110 -34 125 -32 117 18 -7 51 -56 76 -56 29 0 -18 -4 -32
-10 -32 -21 0 -87 68 -79 81 22 36 -77 33 -112 -2 -53 -53 -53 -53 -56 69 -2
92 3 109 37 118 43 11 54 63 18 85 -12 7 -32 3 -44 -9 -12 -12 -28 -22 -36
-22 -11 0 -10 346 2 460 1 17 -6 102 -17 190 -11 92 -12 224 -3 310 22 205 56
440 73 500 7 28 12 56 11 63 -19 91 189 789 352 1187 553 1343 1704 2495 2897
2901 86 29 175 60 197 69 113 47 442 116 800 168 185 27 827 -7 1065 -57z
m2974 -2497 c22 -22 31 -34 18 -27 -13 7 -28 2 -33 -12 -7 -18 -20 -14 -47 13
-20 21 -26 31 -12 24 14 -8 25 -5 25 7 0 11 -13 21 -28 21 -15 0 -33 14 -39
30 -15 39 52 6 116 -56z m48 -126 c8 5 26 -7 38 -28 23 -36 21 -36 -41 -4 -83
44 -101 71 -58 86 23 9 36 1 40 -25 4 -21 13 -34 21 -29z m113 -297 c32 -25
33 -29 5 -19 -24 8 -35 2 -35 -20 0 -18 7 -31 15 -30 39 7 90 -3 79 -15 -8 -7
-5 -24 7 -38 14 -17 11 -28 -12 -37 -41 -15 -109 21 -109 59 0 16 -16 29 -35
29 -30 1 -31 3 -5 20 24 15 24 19 3 20 -21 0 -22 7 -6 26 16 20 15 34 -2 53
-32 33 34 0 95 -48z m100 -433 c104 -58 146 -96 80 -71 -34 13 -35 10 -18 -35
7 -18 19 -27 28 -22 8 5 20 -14 25 -42 10 -53 -75 -57 -107 -5 -7 11 -20 21
-30 22 -60 4 -123 95 -67 95 12 0 2 27 -21 60 -54 76 -27 76 110 -2z m42 -459
c107 -51 125 -67 110 -95 -12 -22 -9 -51 10 -88 36 -69 26 -69 -112 0 -109 55
-180 164 -86 131 25 -8 20 4 -19 41 -94 92 -76 94 97 11z m147 -533 c4 -4 -2
-17 -15 -30 -13 -13 -24 -33 -24 -45 0 -12 9 -7 20 9 16 24 19 24 20 2 0 -15
-16 -40 -35 -54 -33 -25 -33 -27 0 -27 19 -1 35 -9 35 -19 0 -10 -43 -3 -96
17 -113 41 -184 80 -149 80 16 1 25 29 25 76 -1 56 -6 67 -20 45 -16 -24 -19
-22 -20 14 l0 45 125 -53 c69 -29 129 -56 134 -60z m-199 -417 c6 -1 35 -13
66 -26 31 -13 65 -23 75 -23 31 0 21 -35 -14 -48 -18 -7 -28 -18 -22 -24 7 -6
31 -1 55 12 56 30 79 8 29 -28 -25 -18 -52 -22 -81 -11 -24 9 -49 11 -56 4 -7
-6 -12 -1 -12 12 0 13 11 23 25 23 17 1 16 6 -4 19 -16 10 -36 14 -45 9 -9 -6
-26 -4 -38 3 -16 10 -14 19 5 31 18 12 19 17 3 18 -13 0 -30 -10 -37 -22 -10
-16 -19 -15 -30 3 -18 30 23 80 51 62 11 -7 25 -13 30 -14z m-40 -111 c0 -12
12 -17 28 -12 19 8 24 0 17 -27 -11 -42 -33 -46 -95 -17 -36 17 -35 18 8 10
36 -7 42 -4 25 13 -28 28 -30 55 -3 55 11 0 20 -10 20 -22z m160 -84 c0 -9 7
-12 16 -7 9 6 17 -7 19 -29 2 -25 -6 -34 -21 -24 -43 26 -101 27 -116 2 -24
-38 -35 -11 -16 39 16 44 118 60 118 19z m-71 -242 c15 -76 3 -85 -60 -43 -50
33 -52 33 -46 -2 6 -28 64 -72 133 -99 15 -6 -37 -106 -60 -113 -14 -5 -11 -7
8 -4 21 3 32 -8 30 -32 -2 -28 -9 -32 -28 -16 -19 16 -26 14 -26 -10 0 -25
-19 -31 -89 -28 -84 3 -111 35 -30 35 22 0 39 9 39 20 0 11 -18 20 -40 20 -55
0 -50 32 9 72 48 31 49 34 19 92 -21 41 -23 55 -6 45 17 -11 21 -6 11 18 -7
18 -18 47 -25 63 -7 17 -2 30 10 30 12 0 22 -14 22 -31 0 -17 8 -26 19 -20 10
6 24 3 31 -9 58 -93 72 21 14 120 l-29 50 41 -49 c22 -28 46 -76 53 -109z m76
85 c19 3 35 -5 35 -18 0 -13 -14 -18 -32 -11 -25 10 -30 3 -22 -28 15 -57 2
-49 -33 20 -19 38 -21 55 -7 46 13 -8 40 -12 59 -9z m-130 -493 c6 -16 -4 -19
-27 -11 -23 10 -30 6 -20 -10 8 -12 30 -24 48 -25 19 0 24 -5 10 -11 -13 -5
-42 0 -64 12 -34 18 -39 17 -29 -9 10 -26 47 -40 92 -32 24 3 18 -35 -16 -100
-17 -32 -25 -68 -19 -79 7 -10 -1 -25 -18 -31 -24 -9 -26 -21 -11 -50 16 -30
14 -35 -11 -25 -36 14 -39 -15 -5 -52 21 -22 16 -24 -25 -15 -48 12 -49 11
-10 -18 39 -29 39 -29 0 -23 -55 9 -93 34 -80 55 6 9 2 23 -10 30 -11 7 -20
-1 -20 -18 0 -16 9 -35 20 -42 11 -7 20 -27 20 -45 0 -28 -5 -27 -31 6 -29 37
-30 36 -6 -11 29 -60 40 -139 22 -168 -7 -12 -13 -44 -14 -71 -1 -43 -11 -51
-61 -53 -82 -4 -167 29 -133 50 15 9 26 20 25 24 -4 31 26 95 41 86 10 -6 11
-21 3 -34 -8 -14 1 -12 20 3 19 16 34 38 34 50 0 13 -9 10 -20 -7 -20 -31 -32
-2 -20 50 2 11 5 49 6 85 2 39 13 65 29 65 17 0 22 16 13 50 -9 35 -3 53 20
62 18 7 32 21 32 31 0 11 -9 14 -20 7 -11 -7 -20 -3 -20 9 0 11 16 21 35 21
30 1 31 3 5 20 -24 16 -21 19 15 20 32 0 45 12 45 40 0 22 -10 40 -22 40 -12
0 -17 -13 -12 -28 12 -30 -34 -32 -60 -3 -9 10 -5 11 9 3 15 -9 26 -2 28 17 4
57 7 68 22 83 8 8 15 4 15 -9 0 -12 14 -23 31 -23 17 0 26 -9 19 -20 -7 -11
-2 -20 11 -20 13 0 19 11 13 25 -6 14 -16 39 -23 57 -8 21 3 39 33 53 53 26
80 22 91 -11z m-310 -812 c36 -1 45 -16 22 -38 -7 -7 -30 -3 -52 9 -28 15 -46
14 -61 -1 -16 -16 -10 -22 22 -22 24 0 44 -9 44 -20 0 -11 -31 -20 -70 -20
-63 0 -104 38 -45 42 20 1 20 3 0 11 -14 6 -25 18 -25 28 0 10 15 12 33 5 24
-9 29 -5 18 13 -12 19 -5 21 31 10 27 -9 64 -17 83 -17z m95 -107 c0 -9 -19
-27 -42 -42 -35 -21 -40 -21 -27 1 12 21 10 21 -13 0 -24 -22 -23 -28 2 -45
26 -16 26 -18 -1 -19 -17 0 -42 11 -55 24 -13 13 -24 15 -24 4 0 -11 11 -31
25 -45 14 -14 -4 -11 -40 7 -35 18 -69 41 -75 51 -14 22 80 48 109 30 11 -7
21 -3 21 10 0 14 17 19 40 13 22 -6 40 -2 40 8 0 10 9 18 20 18 11 0 20 -7 20
-15z m-152 -199 c-29 -21 -31 -34 -11 -76 19 -42 17 -53 -7 -63 -16 -6 -25
-19 -20 -28 6 -9 -21 -15 -60 -13 -38 2 -70 12 -70 21 0 10 -17 13 -39 8 -23
-7 -43 1 -50 19 -8 22 -2 27 21 18 27 -10 30 -3 19 39 -8 34 -5 48 8 39 12 -7
21 -2 21 10 0 12 9 17 20 10 11 -7 20 1 20 17 0 23 23 29 92 27 79 -2 87 -6
56 -28z m-972 -237 c-12 -27 -39 -49 -61 -49 -36 0 -36 3 5 60 50 70 89 62 56
-11z m743 -98 c16 -2 32 -14 36 -27 4 -12 21 -17 36 -11 16 6 29 2 29 -9 0
-27 -40 -40 -104 -33 -40 4 -51 -1 -43 -22 8 -20 -3 -29 -36 -29 -69 -1 -221
-50 -204 -66 7 -8 2 -14 -11 -14 -45 0 -10 50 40 57 45 8 46 9 8 26 -33 15
-31 16 15 10 45 -6 51 -2 33 20 -17 20 -17 27 0 27 12 0 21 7 20 15 -12 75 3
89 77 75 41 -8 88 -16 104 -19z m-7339 -141 c10 6 22 2 29 -8 6 -10 -20 -18
-57 -18 -56 0 -66 6 -57 37 8 33 13 34 39 8 16 -16 37 -25 46 -19z m7390 -10
c7 -11 -1 -15 -17 -8 -17 6 -53 -4 -81 -23 -51 -33 -112 -28 -112 9 0 17 44
27 164 39 18 2 39 -6 46 -17z m-203 -70 c7 -17 39 -31 77 -32 36 -2 51 -7 32
-12 -21 -5 -29 -20 -22 -39 14 -37 -175 -23 -271 19 -52 22 -51 23 32 30 83 6
111 30 60 51 -14 5 -1 11 28 11 30 1 58 -11 64 -28z m-191 -270 c3 -9 26 -11
50 -6 36 8 38 5 14 -12 -18 -12 -20 -22 -7 -22 47 0 9 -87 -54 -120 -31 -17
-36 -15 -26 10 12 33 6 36 -41 18 -46 -18 -39 -63 11 -79 23 -7 33 -19 22 -26
-10 -7 -17 -30 -14 -50 5 -28 -4 -34 -38 -26 -23 6 -104 21 -178 34 -74 13
-135 32 -135 43 0 11 11 16 25 11 14 -5 35 5 47 21 14 19 36 24 66 15 38 -12
40 -19 18 -48 -23 -29 -22 -30 6 -8 17 13 36 20 42 14 6 -6 11 13 11 42 0 29
-6 46 -12 36 -25 -34 -60 -25 -57 14 1 24 13 36 28 30 14 -5 26 1 26 14 0 17
6 17 22 1 26 -26 78 -13 78 19 0 12 -11 11 -27 -3 -23 -18 -28 -13 -28 30 0
29 -12 61 -27 72 -19 12 6 14 72 6 55 -8 103 -21 106 -30z m-269 -459 c27 -10
54 -13 61 -6 7 6 12 3 12 -8 0 -12 -36 -32 -80 -47 -44 -14 -94 -42 -111 -62
-18 -19 -50 -32 -71 -28 -22 5 -34 -1 -27 -11 6 -11 20 -14 30 -8 11 6 19 -3
19 -21 0 -19 -9 -27 -23 -18 -16 10 -20 1 -13 -26 9 -34 2 -39 -52 -33 -111
12 -192 31 -192 45 0 29 70 78 137 95 41 11 46 23 39 91 l-7 79 115 -12 c63
-6 137 -20 163 -30z m-477 -404 c200 -29 189 -42 -52 -60 -65 -5 -90 -15 -83
-32 10 -28 2 -30 -43 -13 -49 19 -40 128 11 128 8 0 84 -10 167 -23z m-155
-143 c14 -9 20 -26 13 -38 -9 -13 -21 -8 -33 14 -15 27 -23 29 -35 9 -24 -38
-1 -79 45 -79 23 0 37 -5 31 -10 -5 -6 -81 0 -168 14 -87 14 -138 28 -113 32
25 4 45 16 45 27 0 10 9 14 20 7 11 -7 20 -1 20 14 0 29 133 37 175 10z m-343
-234 c37 0 68 -8 68 -19 0 -38 -181 -69 -203 -35 -21 32 5 77 37 65 16 -6 60
-11 98 -11z m-4543 -55 c49 -8 56 -15 48 -52 -5 -24 -23 -17 -77 30 -38 33
-56 53 -40 44 17 -9 47 -19 69 -22z m4371 -89 c0 -11 -13 -15 -30 -9 -16 7
-30 4 -30 -6 0 -10 20 -22 45 -27 25 -5 -4 -9 -65 -9 -83 -1 -98 3 -60 15 28
9 42 17 31 18 -10 1 -2 14 19 30 40 29 90 22 90 -12z"/>
<path d="M4300 9908 c-198 -25 -519 -96 -675 -150 -96 -33 -200 -65 -231 -72
-137 -27 -946 -477 -1014 -563 -5 -7 -73 -64 -150 -125 -394 -316 -857 -855
-1090 -1268 -37 -66 -72 -124 -79 -130 -158 -140 -563 -1361 -609 -1840 -53
-545 -56 -927 -10 -1142 11 -50 18 -99 15 -110 -6 -24 19 -216 43 -318 76
-339 139 -529 272 -826 27 -58 48 -116 48 -130 0 -13 19 -51 41 -84 23 -33 49
-78 58 -100 58 -142 435 -650 482 -650 12 0 15 -10 8 -22 -7 -12 12 -48 43
-80 60 -63 99 -76 80 -27 -7 18 -3 26 9 19 11 -7 18 -28 15 -47 -4 -18 5 -31
18 -28 14 2 20 -7 15 -21 -5 -13 9 -38 33 -54 23 -17 70 -55 105 -85 35 -30
74 -55 87 -55 13 0 31 -12 40 -26 41 -67 376 -259 622 -357 85 -34 181 -73
214 -87 92 -41 196 -70 282 -81 43 -5 123 -18 178 -28 277 -51 742 -61 1010
-21 83 12 186 27 230 32 704 86 1805 767 2360 1458 44 55 94 114 110 132 17
18 66 84 110 148 44 63 90 125 101 137 12 13 61 91 109 173 47 83 92 155 98
160 21 17 122 215 122 237 0 12 25 64 57 117 58 99 191 431 215 536 7 33 20
69 29 80 8 11 42 124 76 250 215 811 234 1638 54 2370 -48 198 -68 258 -191
590 -70 189 -285 590 -409 762 -131 180 -269 348 -291 351 -11 1 -29 3 -40 5
-11 1 -20 12 -20 23 0 12 9 16 20 9 61 -38 5 36 -84 112 -127 106 -169 115
-169 35 0 -55 1 -56 45 -27 50 32 90 4 50 -36 -33 -33 -27 -54 13 -41 25 8 28
6 9 -8 -28 -20 -12 -85 20 -85 11 0 15 13 9 29 -9 24 -3 25 38 7 59 -27 61
-39 9 -76 -45 -32 -54 -70 -14 -54 15 5 39 -9 53 -32 26 -41 27 -41 54 -3 35
48 66 12 67 -76 0 -30 10 -55 21 -55 12 0 16 8 10 19 -19 31 23 43 47 13 18
-21 16 -30 -6 -38 -33 -13 -30 -78 4 -89 13 -5 19 10 14 37 -9 43 -8 43 27 6
45 -47 60 -187 16 -151 -22 19 -31 17 -41 -8 -21 -56 -14 -75 18 -49 19 16 30
17 30 3 0 -11 -16 -31 -35 -44 -33 -21 -33 -21 2 -11 20 7 45 12 55 12 10 0
18 14 18 30 0 17 8 30 17 30 27 0 91 -79 76 -93 -7 -8 -13 -3 -13 11 0 13 -9
19 -21 11 -14 -8 -13 -22 3 -42 17 -20 31 -22 45 -8 56 56 88 -25 33 -84 -45
-48 -51 -96 -16 -131 38 -38 59 -28 32 14 -33 54 1 132 40 90 21 -23 20 -28
-5 -28 -17 0 -31 -9 -31 -20 0 -11 20 -20 45 -20 36 -1 39 -4 15 -20 -27 -17
-27 -19 0 -20 27 -1 27 -3 0 -20 -26 -17 -25 -19 5 -20 19 0 36 -7 37 -15 6
-63 21 -97 51 -119 19 -15 24 -26 11 -26 -14 0 -23 -27 -22 -65 l3 -65 13 60
13 60 24 -65 c13 -38 15 -65 4 -65 -34 0 -20 -50 22 -76 22 -14 35 -35 28 -46
-8 -13 -30 -5 -58 21 -24 23 -50 35 -57 28 -8 -8 -14 -3 -14 11 0 13 -10 18
-23 10 -16 -10 -19 2 -10 39 8 29 6 53 -4 53 -10 0 -17 16 -16 35 2 19 -7 33
-19 31 -13 -2 -18 15 -13 43 5 25 -2 53 -16 62 -16 10 -20 7 -11 -8 8 -13 6
-23 -5 -23 -27 0 -45 56 -22 71 26 15 24 49 -2 49 -12 0 -16 -9 -9 -20 7 -11
2 -20 -11 -20 -14 0 -19 17 -13 40 6 22 2 45 -8 51 -10 6 -18 26 -18 44 0 17
-15 48 -32 68 -31 33 -30 35 11 27 36 -7 40 -3 21 20 -26 31 -80 19 -80 -20 0
-14 13 -36 30 -50 16 -13 24 -33 18 -43 -6 -10 0 -32 13 -48 14 -17 19 -35 13
-42 -6 -6 5 -42 25 -80 20 -37 62 -160 93 -272 31 -113 66 -212 77 -220 40
-28 71 -15 69 30 0 25 -6 34 -11 20 -6 -14 -18 -25 -28 -25 -10 0 -8 23 5 50
46 101 116 36 116 -108 0 -44 -9 -85 -20 -92 -11 -7 -20 -30 -20 -51 0 -22 -7
-39 -15 -38 -20 1 -84 139 -65 139 9 0 21 -13 27 -30 7 -16 25 -24 42 -18 17
7 26 20 20 30 -7 10 -22 12 -35 5 -13 -8 -6 7 16 33 40 47 40 47 0 31 -22 -9
-57 -16 -77 -15 -38 2 -38 3 -7 -130 4 -14 12 -31 20 -39 23 -22 16 -51 -8
-36 -15 9 -18 1 -11 -23 42 -139 71 -423 74 -733 2 -140 12 -260 22 -267 11
-7 17 4 13 23 -3 19 7 39 22 45 18 6 22 1 12 -16 -11 -17 -8 -21 7 -12 13 8
18 24 11 35 -6 11 6 25 29 30 41 11 41 11 1 54 -29 31 -33 45 -14 51 59 18 53
52 -10 62 -70 11 -105 108 -51 143 15 9 18 17 6 17 -11 0 -20 23 -20 51 1 52
56 101 90 80 10 -7 24 -3 30 7 6 11 45 15 86 10 58 -7 66 -4 35 10 -38 18 -38
19 5 21 26 0 45 -11 45 -27 0 -36 -44 -52 -103 -38 -39 10 -43 7 -21 -16 25
-27 33 -30 92 -35 69 -7 51 -64 -18 -60 -43 3 -70 16 -70 32 0 15 -9 22 -20
15 -12 -7 -15 -23 -7 -34 7 -12 -1 -33 -19 -46 -26 -19 -12 -22 72 -19 57 2
71 0 30 -5 -81 -9 -109 -59 -57 -100 21 -17 23 -25 6 -25 -51 -2 -23 -39 55
-73 69 -31 111 -88 65 -88 -8 0 -18 -119 -21 -265 -6 -278 -15 -343 -45 -324
-11 6 -19 2 -19 -10 0 -11 9 -21 20 -21 11 0 20 -10 20 -21 0 -12 -10 -15 -22
-8 -16 10 -16 3 0 -27 16 -30 16 -45 0 -55 -12 -7 -17 -30 -12 -51 6 -21 2
-38 -9 -38 -11 0 -15 -7 -10 -15 5 -8 -4 -82 -19 -164 -23 -119 -23 -152 -3
-164 18 -12 15 -16 -10 -17 -19 0 -35 -13 -35 -29 0 -18 -12 -25 -30 -18 -52
20 -34 -44 21 -73 44 -24 46 -30 17 -46 -22 -13 -38 -10 -50 9 -12 18 -17 19
-18 3 0 -13 9 -29 20 -36 37 -23 23 -90 -19 -90 -21 0 -44 -9 -51 -20 -7 -11
8 -20 33 -20 44 0 44 -1 6 -29 -22 -17 -29 -30 -16 -30 13 -1 19 -18 13 -41
-6 -22 -20 -34 -31 -27 -13 8 -17 -2 -11 -28 6 -22 2 -53 -8 -68 -15 -21 -17
-19 -9 7 6 19 3 40 -7 46 -10 6 -13 26 -6 44 9 22 5 28 -11 18 -14 -9 -19 -33
-13 -54 18 -54 -6 -86 -42 -57 -15 13 -28 16 -27 6 1 -25 59 -98 59 -74 0 11
13 20 28 20 16 0 24 -12 17 -28 -8 -21 -30 -26 -76 -19 -42 7 -79 0 -102 -19
-35 -27 -34 -28 7 -8 55 27 72 27 56 0 -9 -13 6 -16 43 -8 44 9 50 7 27 -9
-22 -17 -24 -26 -6 -38 16 -10 18 -25 5 -45 -15 -24 -18 -23 -19 6 0 43 -61
46 -139 5 -59 -30 -101 2 -70 52 7 11 0 17 -15 13 -33 -7 -35 110 -3 198 15
42 16 70 3 83 -13 13 -12 24 2 33 12 7 23 33 24 57 2 34 5 36 12 9 5 -20 17
-31 26 -25 10 6 8 39 -4 73 -18 52 -16 65 11 81 18 10 33 40 33 68 0 27 14 78
32 111 17 34 31 102 31 151 0 84 3 89 49 81 47 -9 66 12 30 34 -11 6 -6 38 12
72 16 34 25 67 18 74 -7 6 -12 3 -12 -7 0 -11 -20 -21 -45 -23 -40 -2 -41 0
-10 17 19 11 35 33 35 49 0 16 11 29 24 29 18 0 18 6 -1 25 -52 52 -73 23
-106 -140 -37 -184 -135 -539 -160 -585 -10 -16 -54 -133 -98 -259 -45 -127
-87 -235 -95 -240 -13 -10 -164 -313 -164 -329 0 -5 18 -4 40 2 22 6 40 19 40
30 0 10 -10 12 -23 4 -13 -8 -18 -3 -13 14 6 15 27 25 48 22 25 -4 30 0 14 11
-23 15 -6 70 21 67 58 -8 79 2 38 19 -49 19 -58 49 -22 71 16 10 20 4 11 -18
-21 -57 109 -24 161 40 34 43 45 48 45 22 0 -28 12 -33 59 -23 91 18 151 -4
154 -57 3 -57 -144 -56 -190 1 -24 30 -26 29 -20 -7 6 -29 28 -43 87 -52 44
-7 68 -14 54 -15 -15 -2 -21 -12 -14 -23 7 -11 -8 -20 -34 -20 -31 -1 -38 -6
-20 -17 18 -12 10 -23 -29 -41 -42 -19 -49 -29 -27 -42 22 -14 23 -27 4 -69
-14 -30 -15 -51 -4 -51 11 0 20 -9 20 -19 0 -33 -54 -1 -76 45 -19 39 -21 40
-23 7 -1 -32 -6 -34 -31 -13 -26 22 -29 20 -18 -7 7 -18 34 -39 60 -45 30 -8
48 -27 48 -50 0 -48 -34 -50 -46 -3 -7 26 -10 23 -12 -11 -1 -26 -10 -41 -21
-35 -24 15 -47 -23 -30 -50 8 -14 21 -14 40 2 22 18 21 9 -3 -39 -26 -52 -43
-62 -101 -62 -44 0 -65 -8 -56 -21 7 -12 26 -17 42 -11 18 7 24 3 15 -10 -7
-13 -1 -30 14 -40 22 -14 21 -17 -7 -18 -22 0 -35 -15 -35 -40 0 -54 -37 -51
-59 5 -18 43 -19 43 -20 -10 0 -30 8 -55 19 -55 11 0 20 -9 20 -19 0 -11 -13
-15 -28 -9 -16 6 -27 -1 -25 -16 2 -14 -5 -27 -15 -29 -34 -7 -50 -56 -26 -85
18 -22 18 -26 0 -16 -13 8 -29 5 -36 -6 -7 -11 -21 -15 -32 -9 -10 7 -17 5
-15 -5 8 -35 -27 -81 -59 -77 -19 3 -23 1 -9 -3 35 -12 31 -32 -15 -71 -22
-19 -40 -25 -40 -14 0 12 -8 16 -18 10 -10 -6 -13 -30 -7 -53 9 -37 5 -41 -34
-28 -38 12 -43 8 -32 -26 8 -25 2 -43 -18 -51 -19 -7 -25 -24 -17 -46 9 -23 5
-29 -11 -19 -12 8 -23 5 -23 -7 0 -11 -14 -21 -31 -21 -17 0 -26 -9 -19 -20 7
-11 -2 -20 -19 -20 -17 0 -31 -13 -31 -29 0 -15 -18 -34 -40 -41 -22 -7 -40
-30 -40 -51 0 -25 -14 -39 -37 -39 -20 0 -47 -20 -59 -45 -13 -27 -22 -33 -23
-16 -1 30 -71 -53 -71 -84 0 -8 -5 -13 -10 -10 -12 5 -53 -26 -143 -109 -32
-30 -71 -50 -86 -44 -15 6 -33 1 -40 -10 -8 -13 -1 -17 16 -10 37 14 56 -15
33 -52 -14 -23 -22 -23 -48 -1 -28 22 -34 18 -44 -33 -9 -45 -22 -58 -55 -55
-24 2 -58 -4 -76 -14 -19 -9 -38 -10 -42 -2 -5 8 -6 4 -2 -10 13 -53 -15 -85
-55 -64 -30 16 -38 14 -38 -10 0 -17 11 -31 25 -32 14 0 -10 -13 -54 -29 -43
-15 -103 -46 -134 -69 -58 -43 -117 -54 -117 -22 0 11 -15 14 -34 7 -29 -12
-29 -14 5 -27 36 -13 35 -16 -11 -35 -112 -47 -146 -57 -195 -63 -28 -3 -26
-7 10 -22 60 -24 57 -29 -19 -31 -35 -2 -67 -12 -71 -24 -4 -11 -29 -17 -56
-12 -27 5 -49 0 -49 -12 0 -11 -7 -19 -15 -18 -54 9 -125 -5 -115 -22 11 -18
-15 -29 -55 -22 -8 1 -15 -6 -15 -16 0 -9 -24 -17 -53 -17 -30 0 -64 -12 -75
-28 -24 -29 -80 -36 -104 -12 -8 8 -24 15 -35 15 -11 0 -14 -6 -7 -13 19 -19
-77 -65 -120 -58 -20 3 -43 -5 -51 -17 -10 -16 -14 -16 -15 0 0 23 -157 4
-201 -23 -11 -6 -25 3 -31 20 -7 17 -21 31 -32 31 -11 0 -15 -13 -9 -30 8 -19
-1 -31 -23 -32 -19 0 -49 -4 -67 -8 -22 -4 -38 12 -47 46 -10 41 -17 46 -31
23 -10 -16 -13 -46 -6 -67 8 -25 4 -32 -13 -22 -13 8 -19 31 -14 52 6 23 0 38
-16 38 -16 0 -22 -15 -16 -40 6 -22 2 -40 -10 -40 -28 0 -45 54 -30 93 9 25 0
21 -31 -10 -44 -44 -96 -42 -70 3 10 18 7 18 -12 1 -19 -17 -19 -34 -2 -70
l22 -47 -33 45 c-45 62 -71 56 -47 -10 18 -52 17 -52 -10 -15 -58 79 -75 92
-132 103 -32 7 -53 20 -47 30 6 10 19 12 29 6 11 -6 19 2 19 18 0 38 -27 46
-111 37 -59 -7 -66 -15 -65 -68 2 -60 3 -60 99 -49 106 11 130 -17 54 -64 -37
-23 -41 -23 -31 3 8 21 -2 29 -32 29 -24 0 -96 10 -160 24 -63 13 -133 18
-156 10 -44 -14 -104 24 -86 55 7 10 29 4 50 -16 44 -40 50 -15 8 40 -16 21
-24 45 -18 55 5 9 -4 11 -22 4 -17 -6 -27 -16 -22 -22 11 -11 -37 -65 -58 -65
-7 0 -26 14 -43 30 -17 17 -37 26 -46 20 -9 -5 -28 4 -41 20 -38 45 -60 36
-60 -25 0 -30 -7 -45 -15 -33 -8 12 -28 27 -45 33 -24 10 -23 12 5 13 25 2 34
17 32 57 -2 54 -3 54 -12 5 -9 -47 -11 -47 -26 -10 -16 40 -16 40 -18 0 -1
-33 -5 -35 -21 -10 -13 19 -25 23 -35 10 -9 -13 -32 -3 -59 25 -25 25 -36 45
-25 45 10 0 19 9 19 20 0 28 -95 25 -104 -3 -6 -17 -20 -16 -53 2 -35 18 -41
30 -23 51 18 22 13 25 -24 17 -37 -8 -40 -6 -16 11 25 18 22 21 -15 22 -25 0
-45 12 -45 28 0 16 -11 33 -25 38 -17 6 -18 16 -5 30 26 27 70 -17 70 -69 0
-7 18 3 41 24 33 30 38 31 28 5 -14 -38 47 -64 101 -43 24 9 32 6 24 -7 -9
-14 27 -27 96 -35 91 -11 160 -51 90 -51 -11 0 -20 -7 -20 -17 0 -9 14 -16 30
-16 17 0 30 11 30 25 0 36 26 48 78 34 26 -6 40 -22 34 -37 -13 -35 29 -48 75
-25 42 22 75 2 36 -22 -21 -13 -19 -19 7 -29 54 -21 66 -16 87 42 12 35 20 42
21 20 1 -19 12 -35 23 -35 12 0 16 9 9 20 -7 11 -4 20 5 20 35 0 43 -25 20
-61 -17 -27 -16 -43 4 -67 27 -33 71 -45 52 -14 -6 9 3 29 19 42 17 14 30 37
30 52 0 16 16 28 35 28 30 -1 31 -3 5 -20 -22 -15 -12 -19 40 -19 51 0 62 5
41 18 -17 10 -24 25 -17 32 7 7 40 -8 74 -33 34 -25 68 -39 76 -31 8 8 -6 20
-30 26 -59 16 -56 36 6 40 32 2 50 -8 50 -27 0 -17 11 -26 25 -21 14 6 62 4
105 -3 56 -10 86 -6 100 13 29 38 192 12 176 -27 -5 -16 0 -28 12 -28 12 0 22
14 22 31 0 17 9 26 20 19 11 -7 14 1 8 19 -15 37 4 40 40 7 14 -14 22 -41 17
-60 -7 -25 2 -36 28 -36 31 1 32 4 7 21 -26 17 -25 23 7 48 34 26 34 28 -10
37 -39 7 -37 9 13 12 48 2 54 7 30 24 -25 19 -25 20 4 11 19 -6 40 -2 47 9 8
13 22 12 41 -3 17 -15 28 -16 28 -4 0 13 26 15 71 5 57 -13 70 -11 61 11 -15
40 19 54 48 19 14 -17 35 -30 47 -30 14 0 12 7 -4 18 -33 20 65 50 103 31 13
-7 6 3 -16 22 -36 31 -36 33 -3 22 24 -9 49 2 74 32 33 40 38 41 38 9 1 -20
-8 -31 -19 -24 -11 7 -14 -1 -7 -20 6 -17 17 -27 23 -21 6 6 24 -1 41 -14 25
-21 28 -20 13 5 -15 26 -13 26 16 3 29 -24 34 -24 34 3 0 17 -11 35 -25 41
-20 8 -20 10 0 11 14 1 25 14 25 29 0 24 77 55 150 61 11 1 32 16 46 32 24 27
26 27 14 0 -10 -22 -6 -22 14 3 18 22 49 30 94 25 53 -6 64 -2 54 23 -9 24 -2
29 28 19 24 -8 40 -4 40 10 0 12 -8 17 -19 11 -10 -6 -25 -1 -33 12 -10 17 7
20 64 12 43 -6 67 -7 53 -2 -14 6 -25 18 -25 28 0 10 14 13 30 6 17 -6 30 -1
30 12 0 13 9 18 20 11 12 -7 15 -21 9 -31 -6 -11 -6 -19 1 -19 7 0 22 28 34
62 15 43 27 55 42 40 28 -28 61 -29 44 -2 -7 11 -3 20 9 20 11 0 21 15 21 32
0 27 5 28 30 8 25 -21 30 -18 30 17 0 29 9 38 30 30 21 -8 30 1 30 30 0 22 8
46 18 52 10 6 14 -6 8 -28 -8 -31 -2 -36 34 -27 33 9 37 16 17 28 -22 14 -22
17 -1 18 15 0 21 9 14 21 -9 13 6 16 43 6 49 -12 54 -10 32 17 -34 41 58 86
115 56 25 -13 42 -13 50 0 7 11 10 21 6 21 -3 1 -28 6 -55 11 -59 11 -80 28
-34 28 18 0 33 9 33 20 0 11 10 20 22 20 15 0 13 -12 -5 -34 -21 -27 -15 -26
27 5 30 21 55 46 55 54 1 8 15 15 31 15 17 0 30 12 30 28 0 34 75 56 87 25 5
-13 6 13 3 57 l-7 80 39 -47 38 -47 2 57 c2 31 2 64 0 72 -1 8 5 14 13 13 39
-6 112 6 90 15 -35 14 -31 67 5 67 17 0 30 -10 30 -21 0 -12 9 -16 20 -9 30
19 24 50 -10 50 -16 0 -30 9 -30 19 0 11 14 15 30 8 17 -6 30 -1 30 11 0 12
14 22 32 22 21 0 28 11 20 31 -6 18 2 45 18 62 17 16 31 22 32 13 1 -9 13 11
28 44 l27 60 -1 -86 c0 -47 5 -91 12 -98 12 -12 20 108 13 181 -3 25 4 32 20
22 16 -10 20 -7 11 8 -8 13 -5 23 7 23 65 0 108 48 90 102 -9 29 -6 39 9 29
13 -8 22 3 22 29 0 23 9 37 19 30 13 -7 13 -30 0 -62 -12 -33 -12 -63 0 -85
12 -19 20 -23 20 -8 1 14 16 25 35 25 29 0 29 4 -5 29 -33 24 -35 35 -14 70
32 52 31 61 -4 61 -19 0 -25 12 -18 32 10 25 16 26 29 5 13 -21 23 -18 47 13
37 49 40 77 6 60 -14 -7 -9 0 11 16 28 23 29 31 8 40 -18 7 -76 -57 -165 -183
-76 -106 -154 -205 -173 -219 -20 -15 -36 -37 -36 -51 0 -13 -128 -149 -285
-302 -157 -154 -283 -285 -281 -292 2 -7 -7 -12 -21 -12 -30 0 -133 -66 -133
-86 0 -8 -70 -58 -155 -111 -85 -54 -159 -103 -165 -109 -17 -19 -85 -58 -234
-134 -79 -40 -139 -82 -132 -93 7 -11 3 -15 -7 -8 -11 6 -64 -9 -119 -34 -617
-286 -1451 -387 -2078 -252 -110 24 -213 46 -230 50 -97 21 -399 148 -574 241
-234 125 -226 122 -212 69 6 -22 20 -34 31 -27 13 8 15 3 6 -11 -10 -17 1 -20
42 -11 44 9 50 7 27 -9 -27 -20 -27 -24 0 -42 17 -11 21 -20 10 -21 -11 -1
-40 -6 -65 -10 -33 -6 -45 1 -45 26 1 27 4 29 18 8 10 -17 22 -20 29 -7 7 11
0 25 -17 31 -16 6 -38 -4 -49 -23 -12 -21 -20 -24 -20 -8 -1 15 -9 21 -19 15
-10 -6 -13 8 -7 31 8 32 15 35 28 15 11 -18 16 -4 13 39 -6 78 -39 112 -94 95
-26 -9 -36 -25 -29 -47 9 -29 8 -30 -11 -4 -16 22 -14 36 8 52 31 23 -44 124
-98 131 -12 2 -35 4 -52 6 -16 2 -28 12 -26 23 2 11 -68 91 -156 178 -96 94
-155 168 -149 185 6 15 2 22 -9 15 -11 -7 -20 -3 -20 9 0 12 13 27 30 34 16 6
24 20 17 31 -7 13 -18 10 -28 -6 -25 -40 -75 12 -68 72 5 47 -18 62 -77 52
-10 -2 -11 6 -4 18 7 11 1 20 -13 20 -18 0 -19 6 -3 22 13 13 18 38 11 55 -6
18 -5 27 4 20 19 -18 92 45 79 67 -6 9 -20 11 -30 5 -28 -18 -118 46 -118 83
0 17 9 25 20 18 11 -7 20 -3 20 9 0 11 -8 21 -19 21 -11 0 -11 23 -2 57 9 32
12 83 7 115 -6 36 -3 49 8 33 14 -18 26 -14 52 15 23 27 26 40 9 41 -14 0 -8
10 12 22 30 17 32 25 11 38 -15 9 -20 24 -11 33 9 9 29 -2 45 -24 28 -38 29
-38 22 7 -4 25 -20 54 -35 64 -18 12 -20 19 -5 19 13 0 29 17 36 39 6 21 36
47 66 58 32 12 40 20 20 21 -23 2 -31 16 -27 47 10 74 34 116 58 101 13 -8 10
3 -7 24 -17 22 -20 31 -5 23 15 -10 25 -4 25 14 0 16 11 34 25 40 20 8 19 14
-2 29 -20 14 -17 21 15 29 27 7 38 22 31 41 -7 17 -2 36 10 43 12 8 16 22 10
32 -6 11 -2 19 10 19 11 0 22 20 22 45 2 43 3 43 19 5 15 -34 17 -32 19 20 2
77 25 112 58 92 21 -13 20 -19 -5 -29 -18 -6 -32 -28 -32 -47 1 -31 4 -32 22
-6 15 21 24 23 31 6 5 -13 24 -18 42 -11 23 9 27 4 14 -17 -13 -22 -9 -22 21
2 35 28 36 27 21 -10 -31 -79 -37 -116 -17 -104 12 8 20 -10 19 -42 -1 -30 4
-90 10 -134 6 -44 7 -64 3 -45 -13 51 -40 43 -36 -10 2 -27 24 -55 58 -72 30
-15 51 -31 45 -36 -5 -6 -28 0 -51 12 -23 12 -42 15 -42 5 0 -9 23 -29 50 -44
28 -15 50 -35 50 -45 0 -9 -9 -12 -20 -5 -11 7 -20 -5 -20 -26 0 -23 18 -44
42 -50 23 -6 38 -23 33 -38 -5 -14 3 -54 17 -88 20 -48 21 -67 2 -86 -19 -19
-16 -21 11 -11 19 7 35 24 35 38 0 13 13 24 30 24 21 0 24 -7 9 -25 -15 -18
-11 -30 15 -45 19 -11 29 -26 21 -34 -8 -8 -27 -4 -43 10 -27 21 -34 -32 -14
-96 1 -5 17 4 36 20 19 15 27 17 20 4 -9 -14 0 -28 21 -33 21 -6 11 -11 -25
-13 l-60 -4 60 -20 c33 -11 73 -24 88 -29 22 -7 21 -15 -8 -35 -38 -28 -32
-31 73 -35 19 0 39 -14 45 -30 6 -17 4 -25 -6 -20 -9 6 -33 -7 -52 -28 -34
-37 -34 -40 -2 -40 21 0 29 -10 21 -25 -7 -14 5 -3 27 24 33 40 46 45 70 24
35 -29 58 -103 32 -103 -10 0 -18 -10 -18 -22 0 -12 12 -18 27 -12 15 6 39 2
55 -8 20 -12 21 -17 3 -18 -14 0 -25 -9 -25 -20 0 -11 7 -19 15 -18 56 9 119
-68 108 -132 -2 -11 10 -3 27 19 17 21 30 28 30 14 0 -14 9 -20 20 -13 12 7
20 6 18 -4 -9 -54 5 -84 34 -72 28 10 29 6 10 -30 -18 -34 -16 -46 13 -62 33
-20 33 -21 0 -21 -19 -1 -35 -12 -35 -26 -1 -18 -6 -17 -18 3 -13 20 -17 14
-15 -23 2 -28 9 -48 16 -43 7 4 18 -6 25 -24 17 -44 15 -104 -4 -116 -9 -5
-13 17 -8 49 7 51 3 58 -29 46 -65 -24 -100 -147 -42 -147 17 -1 15 -7 -5 -20
-27 -17 -15 -29 25 -22 8 1 15 -8 15 -19 0 -12 9 -16 20 -9 11 7 20 2 20 -10
0 -13 11 -16 25 -7 17 10 17 5 -2 -19 -17 -20 -24 -67 -20 -124 4 -49 -1 -90
-11 -90 -10 0 -13 -6 -6 -13 21 -21 73 34 61 64 -11 28 30 39 113 31 22 -2 19
6 -10 30 -35 30 -36 32 -3 21 20 -7 40 -13 45 -13 4 0 8 -13 8 -30 0 -23 9
-25 48 -7 35 16 58 15 85 -2 34 -21 33 -22 -8 -11 -34 10 -45 4 -45 -21 0 -21
-11 -29 -29 -22 -17 6 -34 4 -40 -5 -18 -29 13 -41 52 -21 29 16 37 13 37 -11
0 -18 9 -27 20 -20 12 7 15 21 9 31 -15 25 4 24 53 -2 21 -12 34 -29 29 -38
-6 -10 7 -13 29 -7 22 6 45 18 50 27 12 18 150 -21 150 -43 0 -9 41 -22 90
-29 50 -8 95 -21 101 -30 6 -10 23 -12 40 -6 16 6 29 1 29 -11 0 -25 98 -29
135 -6 53 34 -324 224 -444 224 -21 0 -399 133 -496 174 -80 34 -87 47 -54
108 12 22 24 64 28 94 4 30 26 110 49 178 54 161 58 148 -58 217 -54 32 -99
66 -100 74 0 8 -9 15 -20 15 -24 0 -80 45 -175 140 -38 39 -78 68 -89 65 -10
-4 -14 3 -7 13 6 10 -16 49 -50 85 -34 37 -96 128 -137 202 -41 74 -83 128
-92 120 -9 -8 -10 -4 -2 9 7 14 -4 64 -26 112 -118 258 -169 775 -115 1169 9
69 9 125 0 124 -26 -1 -441 -854 -549 -1129 -26 -66 -52 -124 -58 -130 -5 -5
-12 -19 -14 -30 -11 -46 -67 -191 -116 -297 -28 -63 -45 -125 -38 -139 8 -14
7 -17 -4 -7 -34 30 -87 222 -67 242 30 30 22 57 -12 43 -24 -9 -29 -2 -19 28
8 25 4 40 -11 40 -13 0 -18 14 -11 31 7 20 3 26 -11 17 -13 -8 -19 -3 -13 14
5 15 27 31 48 35 94 19 112 55 37 78 -65 20 -70 19 -58 -17 8 -25 2 -38 -17
-38 -16 0 -34 20 -39 45 -6 25 -24 99 -41 165 -48 190 -58 245 -35 208 11 -17
25 -62 31 -99 17 -94 30 -100 30 -12 0 40 9 73 20 73 11 0 20 10 20 22 0 12
-12 17 -28 12 -19 -8 -24 0 -18 27 8 29 1 36 -32 29 -28 -5 -42 3 -42 22 0 19
10 25 25 16 14 -8 9 3 -10 25 -56 65 -47 131 15 107 39 -15 50 -13 50 10 0 17
12 24 30 17 17 -6 30 -1 30 11 0 12 -13 22 -30 22 -16 0 -30 9 -30 20 0 11
-13 20 -28 20 -19 0 -25 -15 -18 -45 7 -33 4 -38 -10 -17 -11 15 -30 21 -42
13 -14 -8 -22 5 -22 37 0 37 8 48 30 39 16 -6 30 -1 30 11 0 12 -11 20 -24 17
-99 -20 -36 1091 87 1525 136 482 187 643 241 760 33 72 81 181 107 243 564
1336 1934 2429 3297 2629 365 54 1078 13 1262 -72 22 -10 99 -36 170 -57 237
-71 640 -251 640 -286 0 -8 -28 -20 -61 -27 -53 -12 -250 -99 -577 -255 -89
-42 -162 -101 -162 -131 0 -30 149 -16 180 16 17 18 24 22 16 10 -15 -23 60
-81 79 -61 7 6 1 11 -12 11 -43 0 -23 36 27 48 28 7 50 22 50 32 0 11 13 20
29 20 19 0 26 13 19 35 -9 26 -1 24 29 -10 44 -50 84 -25 42 26 -32 39 -10 37
30 -2 17 -18 31 -22 31 -10 0 25 97 70 137 63 16 -3 21 5 13 19 -10 16 -3 20
22 12 46 -15 103 15 70 36 -12 7 -22 4 -22 -7 0 -11 -14 -15 -30 -9 -23 8 -13
20 35 44 36 18 68 26 72 18 3 -8 15 -15 26 -15 11 0 13 11 5 23 -10 16 -3 20
20 10 20 -7 44 -13 55 -13 11 0 14 -9 7 -20 -7 -11 2 -20 20 -20 18 0 27 -9
20 -20 -17 -28 42 -48 85 -29 19 8 44 14 55 11 146 -29 -660 471 -820 509 -33
8 -69 21 -80 30 -34 25 -350 115 -530 150 -165 32 -783 56 -940 37z m2660
-1028 c-13 -8 -20 -22 -17 -32 4 -10 -8 -20 -25 -24 -23 -4 -31 7 -28 40 6 57
2 54 52 41 27 -7 33 -16 18 -25z m710 -1508 c16 -15 23 -33 16 -39 -6 -7 3
-18 21 -25 45 -17 42 -41 -6 -54 -22 -5 -38 -3 -35 6 2 9 -5 16 -16 17 -11 0
-19 -11 -18 -25 1 -14 -9 -25 -22 -25 -14 0 -25 21 -25 46 0 28 12 47 29 47
20 0 25 13 16 40 -15 47 1 52 40 12z m-35 -210 c-8 -31 3 -41 59 -52 66 -12
68 -14 33 -42 -20 -16 -28 -27 -17 -26 72 10 95 -26 64 -102 -11 -27 -18 -64
-16 -81 2 -18 -14 -32 -37 -33 -31 -3 -41 9 -41 45 0 29 12 49 28 49 31 0 58
54 41 82 -24 38 -94 20 -83 -22 6 -22 4 -44 -5 -49 -8 -5 -10 -38 -5 -73 6
-40 2 -59 -11 -51 -30 18 -43 110 -17 120 12 4 15 15 7 24 -9 9 -26 6 -39 -7
-13 -13 -32 -24 -41 -24 -10 0 8 23 39 52 40 36 45 48 19 40 -33 -11 -36 -3
-29 58 9 76 -17 99 -28 25 -4 -29 -12 -37 -21 -22 -9 13 4 46 30 75 53 61 84
67 70 14z m229 -681 c-3 -15 3 -33 15 -40 11 -7 -11 -14 -50 -15 -74 -2 -66
51 8 56 20 1 12 9 -17 19 l-50 17 50 -4 c31 -3 48 -16 44 -33z m-6356 -1893
c22 -58 13 -121 -18 -121 -16 0 -30 7 -30 16 0 10 9 17 20 17 11 0 20 13 20
29 0 18 -15 26 -41 21 -22 -4 -35 1 -28 11 6 10 1 19 -11 19 -12 0 -17 9 -10
20 19 31 84 23 98 -12z m5701 -135 c57 -53 67 -83 21 -66 -21 8 -30 -1 -30
-31 0 -43 -1 -43 -29 -5 -27 35 -44 149 -22 149 5 0 32 -21 60 -47z m-5215
-2402 c27 -10 28 -7 6 19 -21 25 -21 29 2 20 39 -15 78 -106 63 -146 -10 -28
-7 -30 18 -9 38 31 57 13 57 -53 -1 -38 -5 -44 -18 -24 -10 16 -28 21 -43 11
-15 -9 -20 -7 -13 5 16 26 -70 101 -104 90 -20 -7 -21 0 -4 32 15 28 15 46 2
54 -11 7 -19 28 -18 46 2 31 3 31 11 1 5 -19 24 -39 41 -46z"/>
<path d="M2750 9560 c-7 -11 -30 -20 -51 -20 -22 0 -39 -14 -39 -31 0 -27 8
-27 60 4 33 20 60 43 60 51 0 22 -15 20 -30 -4z"/>
<path d="M4401 9313 c-9 -25 -33 -108 -52 -185 -44 -180 -45 -180 -214 -194
-563 -48 -978 -280 -1314 -734 -70 -93 -134 -168 -143 -165 -9 2 -12 -7 -7
-20 5 -14 -23 -106 -62 -205 -123 -312 -170 -646 -121 -860 12 -54 23 -99 42
-190 4 -16 8 -39 9 -50 1 -11 20 -42 43 -70 23 -27 34 -36 26 -20 -14 26 -11
26 18 3 31 -25 34 -22 34 33 0 34 -9 67 -20 74 -31 19 -24 50 9 38 24 -10 25
1 8 63 -23 83 1 116 73 99 22 -5 29 -4 15 2 -36 16 -31 88 6 88 17 0 26 -9 19
-20 -7 -11 2 -20 19 -20 43 0 39 60 -4 61 -32 2 -32 3 1 16 21 8 36 21 35 29
-5 52 2 62 25 34 31 -39 94 -44 94 -8 0 16 -18 28 -40 28 -42 0 -54 29 -20 50
11 7 21 1 21 -14 1 -14 10 -8 19 14 16 38 17 38 19 -5 1 -51 37 -61 52 -15 5
17 15 46 22 65 18 48 22 60 25 94 3 39 75 78 92 51 7 -12 6 -20 -4 -18 -56 10
-66 -8 -66 -112 0 -66 9 -110 22 -110 15 0 17 33 8 100 -13 95 29 153 55 76 6
-19 11 -19 23 0 8 13 6 24 -3 24 -10 0 -14 29 -8 65 10 63 11 63 25 15 13 -46
14 -47 16 -6 1 24 11 49 21 55 23 14 66 -58 46 -77 -7 -8 7 -19 31 -25 26 -7
44 -27 44 -49 0 -21 14 -38 30 -38 17 0 30 -13 30 -28 0 -15 14 -33 32 -40 49
-19 51 -15 16 38 -18 28 -26 50 -18 50 8 0 4 14 -10 30 -43 51 -33 268 17 364
92 180 284 320 488 357 42 7 81 23 89 35 17 28 43 -44 31 -89 -5 -20 -45 -42
-102 -56 -459 -112 -610 -573 -288 -877 l75 -70 18 68 c10 37 47 163 83 278
36 116 71 237 78 270 7 33 18 78 24 100 11 40 11 40 -19 0 -17 -22 -27 -45
-22 -53 4 -7 -6 -18 -22 -24 -17 -7 -30 -26 -30 -42 0 -17 -8 -31 -19 -31 -10
0 -14 -23 -9 -52 6 -32 2 -46 -11 -38 -12 7 -21 -2 -21 -19 0 -17 -9 -31 -20
-31 -11 0 -19 -7 -18 -15 7 -43 -5 -68 -29 -59 -34 13 -30 -51 6 -95 23 -28
22 -30 -9 -18 -25 9 -32 6 -22 -10 9 -15 0 -23 -27 -23 -43 0 -55 29 -21 50
11 7 20 23 20 36 -1 15 -7 14 -19 -4 -33 -53 -34 82 -1 176 37 107 157 248
241 283 45 18 74 52 101 113 34 81 41 86 81 65 38 -21 42 -19 32 16 -8 31 -2
38 25 31 47 -12 71 28 25 42 -34 11 -52 112 -21 112 8 0 9 15 2 33 -10 27 -1
31 51 23 35 -5 63 -2 63 7 0 10 -34 18 -75 19 l-75 1 70 26 c39 14 82 21 96
16 14 -6 23 2 20 18 -5 21 20 26 104 23 86 -3 97 0 50 12 l-60 16 70 11 c88
14 -98 2 -210 -14 -75 -11 -73 -9 26 25 58 20 100 42 92 49 -7 7 13 19 45 26
113 25 115 27 78 67 -23 27 -27 42 -11 52 12 8 33 0 46 -16 31 -39 190 -54
203 -19 7 18 -15 25 -75 26 -63 1 -74 6 -44 18 22 9 47 12 55 7 8 -4 15 -3 15
3 0 7 -20 20 -45 30 -39 16 -40 19 -7 20 22 0 57 17 79 36 22 19 33 24 25 10
-8 -14 -5 -25 7 -25 11 0 21 14 21 31 0 17 9 26 20 19 11 -7 20 -3 20 9 0 11
32 21 70 21 53 0 70 8 70 35 -1 30 -3 31 -20 5 -12 -18 -20 -20 -20 -6 0 32
34 51 49 28 7 -12 35 -6 68 13 61 34 123 24 123 -22 0 -18 -34 -34 -95 -44
l-95 -16 87 -20 c62 -14 98 -13 124 3 27 17 39 17 46 -2 7 -17 16 -16 33 6 17
23 26 24 33 5 13 -33 47 -12 47 28 0 23 -13 28 -50 19 -63 -16 -63 -8 7 225
44 146 67 194 105 214 60 32 51 36 -212 78 -110 18 -222 37 -250 43 -372 75
-477 80 -499 21z m509 -82 c198 -29 368 -55 378 -58 10 -3 -97 -70 -237 -150
-141 -80 -266 -155 -278 -165 -13 -11 -83 -58 -156 -104 -677 -430 -1571
-1188 -1957 -1662 -132 -161 -143 -153 -130 103 6 118 20 238 29 265 10 28 33
104 51 170 144 522 547 956 1050 1133 149 53 469 117 584 117 l94 0 52 175
c29 96 57 192 63 212 8 26 24 33 54 26 24 -6 205 -34 403 -62z"/>
<path d="M3915 8585 c-41 -9 -48 -65 -7 -65 15 0 33 15 40 33 15 39 12 42 -33
32z"/>
<path d="M3189 7942 c7 -21 3 -44 -8 -51 -29 -19 -26 -76 3 -66 28 9 54 92 41
130 -15 41 -49 28 -36 -13z"/>
<path d="M2808 7696 c-7 -11 -3 -29 8 -40 23 -23 84 -8 84 21 0 27 -78 43 -92
19z"/>
<path d="M6993 9271 c-6 -15 2 -39 18 -52 16 -13 24 -32 18 -41 -6 -10 -2 -18
10 -18 11 0 21 19 21 41 0 26 -8 36 -23 27 -16 -10 -20 -1 -12 29 12 48 -14
60 -32 14z"/>
<path d="M6900 9201 c0 -18 55 -81 71 -81 5 0 9 23 9 50 0 37 -11 50 -40 50
-22 0 -40 -8 -40 -19z"/>
<path d="M5400 9095 c-13 -58 -37 -144 -52 -191 -45 -137 -39 -151 76 -192
116 -41 397 -209 479 -286 29 -27 76 -71 104 -98 206 -194 351 -572 368 -959
9 -225 -18 -550 -52 -603 -12 -20 -980 128 -1068 164 -30 12 -35 44 -37 227
-1 170 -40 401 -58 343 -13 -43 -14 -80 -2 -80 9 0 17 -36 19 -80 1 -44 -5
-80 -15 -80 -10 0 -23 -14 -30 -31 -7 -20 -3 -26 11 -17 16 10 20 0 12 -29 -6
-24 -3 -48 6 -54 21 -13 4 -67 -36 -113 -26 -30 -26 -38 1 -65 17 -17 36 -42
42 -56 9 -19 15 -20 23 -1 10 20 18 20 38 0 15 -13 22 -32 16 -42 -6 -10 -2
-12 10 -5 12 7 36 -1 53 -18 20 -20 139 -50 317 -80 157 -27 330 -58 385 -68
208 -41 351 -40 328 2 -28 54 -3 45 50 -16 66 -77 84 -50 109 158 43 368 16
704 -72 878 -18 37 -36 112 -39 167 -3 55 -11 123 -18 150 -14 50 -14 50 26
10 22 -22 36 -58 33 -80 -5 -26 -3 -29 5 -10 8 17 23 43 36 59 17 22 16 25 -5
12 -21 -12 -25 -5 -15 31 6 27 6 37 0 23 -6 -14 -20 -25 -31 -25 -11 0 -15 7
-10 15 5 8 -4 27 -19 41 -16 15 -28 17 -28 5 0 -33 -34 -24 -48 12 -11 27 -1
31 63 21 98 -14 27 18 -85 38 -45 8 -65 18 -45 23 20 4 30 17 23 28 -7 12 21
16 74 11 47 -4 89 -18 93 -30 4 -12 20 -17 36 -11 16 6 34 -3 41 -21 7 -18 25
-32 40 -32 50 0 4 62 -55 74 -31 6 -57 19 -57 30 0 23 218 15 233 -8 6 -10 30
4 54 30 24 27 57 54 73 60 17 6 -13 12 -65 12 -52 1 -95 11 -95 22 0 11 45 20
100 20 55 0 100 9 100 20 0 36 -128 31 -190 -8 -23 -14 -62 -19 -90 -12 -27 8
-61 5 -75 -6 -18 -13 -25 -10 -25 12 0 18 -14 28 -35 24 -19 -4 -44 -9 -55
-10 -11 -2 3 -11 30 -20 35 -11 39 -17 14 -18 -20 -1 -31 -11 -24 -22 7 -11 3
-20 -9 -20 -11 0 -21 8 -21 18 0 27 -70 39 -107 18 -73 -41 -36 -71 77 -63 66
4 110 -1 110 -13 0 -11 -39 -20 -86 -20 -47 0 -97 -11 -110 -24 -19 -19 -24
-18 -24 1 0 14 -10 19 -23 11 -14 -8 -18 -5 -10 8 8 11 5 27 -6 33 -22 14 -5
74 26 94 13 9 12 25 -5 45 -14 16 -20 48 -12 71 7 22 3 56 -8 76 -15 26 -18
10 -14 -65 2 -55 -3 -110 -11 -122 -9 -11 -19 -40 -23 -64 -8 -55 -34 -82 -34
-36 0 19 -9 29 -20 22 -11 -7 -20 -2 -20 11 0 13 14 18 30 12 24 -9 29 0 22
38 -5 27 -3 49 4 49 8 0 15 27 16 59 1 33 -5 55 -13 50 -9 -5 -21 2 -28 16 -6
14 -8 5 -3 -20 5 -25 0 -40 -10 -34 -10 6 -12 -18 -4 -55 13 -64 12 -65 -24
-29 -30 30 -33 44 -14 75 31 49 30 81 -1 77 -69 -9 -105 1 -75 22 22 15 15 17
-27 7 -53 -12 -56 -10 -45 34 11 41 9 43 -11 15 -26 -35 -177 21 -177 66 0 11
-18 14 -40 7 -26 -8 -44 -2 -51 17 -12 28 -55 33 -80 8 -55 -54 -59 20 -12
188 l52 182 -60 47 c-80 64 -82 63 -109 -57z m1240 -774 c0 -10 16 -21 35 -25
28 -6 27 -10 -10 -20 -25 -7 -40 -4 -34 6 6 10 -34 18 -89 18 -55 0 -105 9
-112 20 -8 12 30 20 99 20 61 0 111 -8 111 -19z"/>
<path d="M6666 8789 c-42 -66 -44 -129 -3 -129 11 0 13 10 6 22 -22 35 53 156
89 144 28 -9 28 -7 2 12 -42 30 -45 29 -94 -49z"/>
<path d="M1672 8783 c-18 -28 9 -86 35 -77 30 10 30 78 0 88 -13 5 -29 -1 -35
-11z"/>
<path d="M7420 8710 c0 -38 9 -70 19 -70 11 0 14 14 7 32 -6 18 0 39 14 48 14
8 19 26 11 38 -27 43 -51 21 -51 -48z"/>
<path d="M6684 8636 c-3 -66 2 -79 18 -56 19 27 20 27 13 0 -12 -42 -66 -37
-62 6 2 30 -2 31 -28 10 -26 -22 -29 -20 -17 17 12 39 -17 85 -39 63 -17 -17
27 -126 48 -121 13 3 23 -13 23 -35 0 -22 9 -40 20 -40 11 0 20 10 20 21 0 12
10 15 23 7 14 -9 18 -5 9 9 -8 13 -7 23 3 23 9 0 28 32 42 70 14 39 35 70 45
70 11 0 14 10 7 22 -8 13 -28 0 -51 -35 -40 -61 -52 -51 -17 14 14 27 14 39 0
39 -12 0 -21 -11 -21 -25 -1 -19 -4 -19 -17 1 -10 16 -18 -7 -19 -60z"/>
<path d="M6385 8665 c-14 -4 -25 -17 -25 -28 0 -11 9 -14 20 -7 11 7 20 3 20
-8 0 -13 24 -16 60 -9 50 10 63 4 78 -36 11 -26 20 -36 21 -24 3 55 -26 87
-79 87 -31 0 -60 8 -63 17 -4 9 -18 13 -32 8z"/>
<path d="M1567 8640 c-64 -26 -71 -52 -14 -51 27 1 59 17 69 36 22 38 10 41
-55 15z"/>
<path d="M4805 8646 c-25 -5 -45 -18 -45 -30 0 -11 14 -15 32 -8 17 7 49 12
70 12 21 0 38 9 38 20 0 20 -15 21 -95 6z"/>
<path d="M5147 8615 c-5 -8 7 -15 27 -15 30 -1 31 -4 6 -20 -22 -14 -6 -19 58
-20 85 0 87 1 54 38 -33 36 -126 47 -145 17z"/>
<path d="M6993 8612 c-14 -39 7 -114 29 -101 10 6 18 0 18 -13 0 -14 6 -19 13
-12 7 7 -2 35 -20 62 -23 35 -25 51 -8 57 16 5 17 12 1 21 -12 8 -27 1 -33
-14z"/>
<path d="M6309 8599 c-7 -13 -4 -32 7 -43 12 -12 16 -33 10 -48 -6 -16 -5 -28
3 -28 7 0 20 20 30 45 17 42 19 40 20 -17 1 -61 49 -88 68 -38 12 30 -31 120
-58 120 -10 0 -30 7 -43 16 -13 8 -29 5 -37 -7z"/>
<path d="M4800 8578 c-24 -17 -21 -20 15 -12 25 6 50 2 56 -8 18 -28 42 -21
42 12 0 35 -69 40 -113 8z"/>
<path d="M6810 8540 c7 -11 -8 -21 -34 -22 -37 -1 -33 -5 19 -20 36 -11 65
-28 65 -39 0 -10 20 -18 45 -17 30 1 35 5 15 13 -47 18 -84 63 -70 85 7 11 -2
20 -20 20 -18 0 -27 -9 -20 -20z"/>
<path d="M1485 8526 c-25 -5 -45 -17 -45 -27 0 -30 73 -22 100 11 14 17 17 29
7 27 -9 -1 -37 -6 -62 -11z"/>
<path d="M6471 8433 c5 -12 40 -24 77 -24 90 -2 73 40 -17 44 -45 3 -66 -4
-60 -20z"/>
<path d="M1328 8411 c-36 -27 -36 -30 -3 -55 37 -28 22 -75 -27 -83 -15 -3
-55 -30 -88 -62 -33 -32 -47 -50 -32 -41 22 13 26 8 15 -18 -7 -20 -13 -44
-13 -54 0 -10 -14 -18 -32 -18 -21 0 -28 -11 -20 -31 6 -17 -1 -35 -16 -41
-16 -6 -34 -41 -41 -78 -8 -46 -40 -91 -100 -142 -60 -52 -85 -87 -80 -114 13
-65 24 -61 81 29 144 231 209 329 232 357 29 32 30 36 34 112 1 37 10 49 31
41 18 -7 47 13 75 53 25 35 61 81 80 103 61 66 -17 100 -96 42z"/>
<path d="M4600 8422 c-49 -7 -80 -18 -68 -26 28 -19 168 4 168 27 0 9 -2 16
-5 14 -3 -2 -45 -8 -95 -15z"/>
<path d="M5485 8340 c0 -49 4 -70 9 -45 5 25 17 40 27 34 11 -6 19 9 19 35 -1
34 -5 39 -18 18 -14 -22 -20 -20 -28 10 -5 21 -9 -2 -9 -52z"/>
<path d="M2214 8360 c-44 -52 -44 -91 1 -94 27 -2 35 13 35 66 0 37 0 68 -1
68 0 0 -16 -18 -35 -40z"/>
<path d="M4835 8376 c-5 -15 7 -43 28 -64 36 -38 37 -38 37 2 0 51 -51 100
-65 62z"/>
<path d="M7020 8386 c0 -12 -29 -27 -65 -35 -45 -10 -56 -19 -35 -28 21 -9 32
-50 36 -132 4 -66 14 -133 24 -150 11 -19 14 3 8 59 -26 245 -26 240 23 232
30 -6 44 1 41 19 -5 34 -32 64 -32 35z"/>
<path d="M2720 8310 c-14 -16 -37 -30 -52 -30 -16 0 -28 -9 -28 -20 0 -11 19
-20 41 -20 27 0 36 8 27 23 -10 16 -4 20 19 11 18 -7 33 -9 33 -5 0 4 5 22 12
39 16 40 -19 42 -52 2z"/>
<path d="M7520 8300 c0 -26 120 -26 160 0 22 14 4 19 -65 20 -52 0 -95 -9 -95
-20z"/>
<path d="M4666 8288 c7 -12 -4 -55 -24 -95 -21 -40 -30 -73 -21 -73 9 0 22 18
29 40 7 22 21 36 30 30 22 -13 12 85 -10 105 -9 8 -11 5 -4 -7z"/>
<path d="M2360 8191 c0 -40 23 -51 63 -30 29 16 37 13 37 -13 0 -27 5 -28 30
-8 17 14 30 17 30 8 0 -9 11 -5 25 9 20 20 19 28 -4 43 -43 26 -181 20 -181
-9z"/>
<path d="M4333 8127 c-7 -8 -13 -38 -13 -68 0 -31 -13 -60 -31 -67 -17 -6 -26
-21 -19 -32 7 -11 4 -20 -5 -20 -10 0 -18 -13 -18 -30 0 -42 32 -38 35 5 2 19
2 42 0 50 -1 8 14 15 33 15 28 0 35 17 35 80 0 44 -1 80 -2 80 -1 0 -7 -6 -15
-13z"/>
<path d="M7600 8119 c0 -12 -10 -15 -22 -8 -12 7 -7 -15 11 -49 33 -64 60 -75
110 -43 25 16 24 21 -8 33 -37 15 -37 15 0 30 37 15 37 15 -2 17 -23 0 -53
-10 -67 -24 -22 -20 -24 -17 -13 20 8 25 9 45 2 45 -6 0 -11 -10 -11 -21z"/>
<path d="M2358 8105 c-2 -8 -2 -22 0 -30 1 -8 -18 -15 -43 -16 -42 0 -43 -2
-8 -22 28 -16 42 -15 53 3 9 14 28 19 43 11 15 -8 11 -1 -8 14 -19 16 -29 35
-21 42 7 7 7 13 -1 13 -7 0 -14 -7 -15 -15z"/>
<path d="M6616 8096 c13 -13 24 -40 24 -60 0 -39 30 -48 50 -16 7 11 2 20 -11
20 -13 0 -18 14 -11 31 6 18 3 26 -8 19 -11 -7 -20 -3 -20 9 0 11 -11 21 -24
21 -19 0 -19 -5 0 -24z"/>
<path d="M6916 8075 c-6 -30 -3 -49 7 -43 9 6 17 1 17 -10 0 -11 -13 -27 -28
-36 -24 -14 -23 -20 1 -43 25 -23 29 -23 25 0 -2 15 2 41 10 58 7 18 6 53 -4
79 l-18 48 -10 -53z"/>
<path d="M6067 8070 c-6 -16 -19 -25 -29 -19 -10 6 -19 4 -20 -5 0 -9 -4 -30
-7 -48 -4 -17 6 -31 20 -31 15 0 22 9 15 21 -7 13 -1 12 14 -2 30 -28 12 -88
-24 -79 -14 4 -19 3 -11 -2 26 -14 16 -45 -14 -45 -16 0 -34 -8 -40 -18 -19
-31 53 -11 77 21 27 37 74 26 59 -14 -15 -39 13 -37 43 4 20 28 22 23 14 -32
-6 -43 -23 -70 -47 -76 -35 -9 -47 -49 -40 -130 1 -19 -9 -35 -22 -35 -17 -1
-18 -5 -3 -15 12 -8 28 -28 35 -45 8 -17 10 -10 5 15 -4 25 1 51 13 58 26 16
79 -53 66 -86 -6 -16 3 -21 25 -12 28 10 30 7 9 -18 -13 -17 -20 -36 -13 -42
6 -6 -10 -18 -35 -26 -28 -9 -48 -6 -53 8 -4 13 -17 23 -28 23 -14 0 -13 -9 1
-27 13 -15 18 -32 11 -38 -6 -6 20 -4 59 4 56 13 68 11 59 -12 -7 -18 -25 -24
-51 -15 -29 9 -36 5 -24 -13 11 -19 -1 -22 -53 -13 -37 6 -57 7 -43 1 55 -23
21 -49 -50 -38 -42 6 -64 4 -50 -5 14 -9 68 -19 120 -21 141 -7 201 -118 68
-125 -18 0 -8 -10 22 -21 58 -21 57 -57 -1 -57 -30 1 -30 3 -4 22 27 19 27 20
0 13 -39 -11 -39 -85 0 -85 16 0 32 -16 36 -35 4 -21 -5 -35 -25 -35 -17 0
-31 11 -32 25 0 15 -8 12 -19 -7 -16 -28 -32 -29 -100 -11 -83 22 -110 64 -40
64 22 0 40 -11 40 -25 0 -14 9 -26 20 -26 38 0 20 61 -23 77 -62 23 -139 4
-132 -32 3 -17 -6 -35 -20 -40 -14 -4 -25 6 -25 23 0 18 -8 30 -18 27 -10 -3
-18 4 -18 15 0 11 8 18 18 15 10 -3 18 8 18 23 0 46 -99 -11 -101 -58 -1 -22
-7 -29 -12 -15 -6 14 -30 26 -54 27 -39 2 -39 3 7 18 49 16 49 16 -10 19 -33
1 -77 15 -97 31 -33 24 -42 24 -67 -1 -16 -16 -39 -29 -52 -29 -14 0 -12 9 6
20 22 15 13 18 -35 13 -64 -6 -117 -33 -66 -33 19 0 20 -7 4 -27 -29 -34 -10
-53 55 -53 29 0 120 -15 202 -33 83 -18 184 -34 225 -35 41 -1 75 -10 75 -19
0 -10 15 -12 33 -5 17 7 42 5 55 -5 51 -41 248 -48 259 -9 62 207 60 699 -4
896 -77 240 -122 312 -150 245 -6 -14 -8 0 -3 30 8 60 -4 73 -23 25z"/>
<path d="M7730 7980 c7 -11 34 -20 61 -20 27 0 49 -10 49 -21 0 -12 9 -16 19
-10 41 26 -5 71 -72 71 -41 0 -64 -8 -57 -20z"/>
<path d="M6460 7909 c-11 -28 -17 -61 -15 -75 3 -13 -7 -22 -21 -19 -20 4 -21
-4 -4 -35 12 -22 26 -40 32 -40 6 0 4 10 -3 22 -8 12 -5 28 6 35 21 14 54 163
35 163 -6 0 -20 -23 -30 -51z"/>
<path d="M7700 7938 c0 -11 -9 -15 -20 -8 -27 17 -26 -16 2 -44 29 -29 98 -9
85 24 -13 34 -67 56 -67 28z"/>
<path d="M4954 7894 c-7 -19 -25 -28 -41 -22 -17 6 -59 -20 -101 -61 -77 -78
-86 -93 -47 -84 14 4 18 3 10 -2 -8 -5 -15 -26 -15 -47 0 -43 -31 -51 -48 -13
-7 14 -7 -9 -1 -50 9 -63 5 -75 -25 -76 -34 0 -34 -2 -2 -26 24 -18 28 -33 14
-47 -11 -11 -21 -49 -22 -84 -1 -36 -8 -55 -15 -44 -29 47 -122 -3 -119 -64 1
-38 5 -36 29 16 19 42 27 49 28 23 1 -24 11 -33 29 -26 16 6 34 -3 40 -19 6
-17 4 -25 -6 -19 -10 6 -23 -2 -29 -18 -6 -16 -1 -32 11 -36 12 -4 -6 -37 -40
-74 -39 -43 -72 -62 -92 -54 -18 6 -32 3 -32 -8 0 -10 7 -19 17 -19 9 0 15
-43 15 -95 -2 -66 6 -93 23 -90 34 7 32 -3 -18 -101 -24 -46 -47 -73 -52 -59
-5 14 -16 20 -26 14 -23 -14 -2 -72 38 -104 26 -21 22 -25 -28 -27 l-59 -3 60
-15 c58 -15 58 -15 -19 -18 -84 -2 -79 -32 9 -48 28 -5 9 -10 -45 -11 -52 -2
-95 -12 -95 -23 0 -12 21 -15 50 -8 68 17 150 -6 150 -42 0 -17 10 -30 22 -30
12 0 17 -13 12 -28 -6 -15 1 -45 16 -65 26 -36 28 -36 40 3 7 22 21 56 31 75
24 44 24 55 -2 55 -12 0 -16 -8 -10 -18 6 -10 -2 -23 -17 -29 -61 -23 -48 68
69 484 280 1001 271 974 313 932 34 -34 86 -39 86 -8 0 12 9 16 20 9 11 -7 20
-4 20 6 0 11 -19 24 -42 30 -23 6 -36 21 -29 33 7 11 0 21 -16 21 -16 0 -33
11 -38 24 -5 15 -12 11 -21 -10z"/>
<path d="M7700 7819 c0 -11 13 -25 30 -32 16 -6 25 -19 19 -28 -6 -10 15 -4
45 12 31 16 67 29 81 29 60 0 18 34 -46 36 -41 2 -66 -5 -59 -17 7 -10 3 -19
-9 -19 -11 0 -21 9 -21 20 0 11 -9 20 -20 20 -11 0 -20 -9 -20 -21z"/>
<path d="M4971 7555 c-133 -445 -173 -589 -181 -645 -4 -33 -36 -145 -69 -250
-76 -237 -76 -231 14 -273 71 -34 400 -253 465 -310 17 -15 78 -67 135 -115
144 -121 385 -449 385 -525 0 -9 23 -66 51 -128 138 -301 144 -1021 11 -1319
-10 -22 -47 -124 -83 -227 -100 -285 -362 -661 -586 -839 -46 -36 -97 -78
-115 -92 -144 -119 -426 -239 -668 -283 -178 -33 -654 -34 -731 -1 -26 11 -44
-29 -97 -220 -36 -128 -70 -245 -75 -258 -6 -17 15 -28 62 -34 93 -10 104 -2
123 94 9 44 17 85 19 90 1 6 15 53 30 106 l28 97 121 -15 c333 -40 760 12
1013 124 584 258 1069 942 1147 1618 5 44 19 155 32 248 13 92 17 218 9 280
-7 61 -18 150 -23 197 -7 75 -74 305 -119 413 -11 27 -9 34 8 24 12 -8 23 -5
23 7 0 11 -13 21 -29 21 -31 0 -84 78 -57 82 9 1 39 2 66 1 28 -1 37 3 20 9
-16 6 -43 16 -60 23 -16 6 -36 10 -43 9 -23 -5 -32 45 -16 86 9 22 17 28 18
13 1 -24 6 -24 35 0 29 23 31 23 17 -1 -12 -19 -10 -24 6 -14 38 24 26 47 -29
57 -38 8 -56 0 -70 -32 -19 -42 -19 -42 -10 2 5 29 -2 45 -19 45 -15 0 -32 9
-39 21 -8 13 6 17 37 11 39 -7 50 -1 48 26 -2 20 -14 35 -28 35 -14 0 -21 -7
-15 -16 6 -9 -3 -17 -19 -17 -20 0 -26 13 -18 45 12 44 12 44 -43 8 -54 -35
-55 -35 -34 4 28 51 21 141 -10 130 -12 -5 -29 7 -37 27 -13 34 -15 34 -42 -3
-22 -29 -29 -31 -29 -9 0 17 11 42 25 56 20 20 19 25 -5 21 -52 -7 -80 0 -80
20 0 11 16 14 35 7 29 -11 31 -9 10 17 -13 17 -18 39 -10 49 8 9 -5 1 -30 -20
-25 -22 -45 -28 -45 -15 0 13 -11 21 -24 18 -13 -3 -25 6 -25 20 -1 14 -8 23
-16 20 -8 -3 -29 16 -47 41 -18 27 -44 42 -61 36 -16 -7 -24 -3 -18 6 6 10 3
39 -8 65 -18 45 -19 45 -21 -13 -2 -56 -4 -57 -21 -15 -22 56 -3 111 33 97 15
-6 37 9 49 34 20 41 19 41 -8 8 -17 -22 -32 -27 -36 -14 -5 13 -33 1 -67 -29
-66 -56 -121 -68 -103 -22 7 19 1 25 -16 19 -31 -12 -56 20 -59 78 -1 22 -18
43 -37 45 -40 6 -48 -23 -10 -37 14 -5 18 -16 9 -26 -9 -9 -24 -4 -34 13 -10
16 -30 29 -44 30 -14 0 -23 14 -19 30 25 107 205 746 297 1053 l31 104 -60 81
-59 81 -55 -185z"/>
<path d="M846 7545 c-7 -19 -16 -42 -20 -50 -22 -40 34 -9 62 35 29 45 30 50
2 50 -17 0 -37 -16 -44 -35z"/>
<path d="M760 7423 c0 -21 -14 -44 -31 -51 -34 -13 -6 -92 33 -92 11 0 15 9 8
20 -7 11 -3 20 9 20 27 0 28 113 1 130 -11 7 -20 -5 -20 -27z"/>
<path d="M5760 7420 c0 -44 3 -45 47 -28 36 14 21 68 -19 68 -15 0 -28 -18
-28 -40z"/>
<path d="M1620 7421 c0 -12 14 -28 31 -34 20 -8 26 -25 17 -54 -12 -36 -9 -39
16 -18 16 14 37 18 46 10 9 -8 10 1 3 22 -7 20 -13 41 -13 46 0 5 -8 4 -18 -2
-11 -6 -33 3 -50 20 -18 18 -32 22 -32 10z"/>
<path d="M7190 7298 c-33 -7 -45 -14 -27 -16 19 -1 38 -13 43 -27 7 -19 15
-19 34 -2 39 37 15 59 -50 45z"/>
<path d="M6912 7252 c14 -35 148 -46 148 -12 0 11 -22 20 -48 20 -27 0 -63 6
-81 12 -23 9 -28 4 -19 -20z"/>
<path d="M688 7210 c9 -36 5 -50 -15 -50 -16 0 -34 -23 -41 -51 -7 -28 -21
-46 -31 -39 -10 6 -25 0 -33 -13 -9 -14 -6 -18 9 -9 28 18 28 13 1 -64 -12
-35 -32 -61 -44 -58 -14 2 -20 -21 -17 -61 3 -36 -3 -65 -14 -65 -11 0 -15
-28 -10 -62 7 -41 3 -58 -11 -49 -13 8 -22 -4 -22 -29 0 -24 -11 -62 -25 -86
-13 -24 -25 -84 -27 -134 -2 -109 -43 -221 -66 -183 -9 14 -17 -30 -18 -101
-2 -182 -4 -196 -28 -196 -13 0 -12 -11 4 -30 23 -27 14 -39 -25 -32 -25 4
-17 -34 10 -45 15 -6 11 -10 -10 -11 -35 -2 -46 -222 -11 -222 8 0 0 -47 -17
-104 -24 -82 -26 -113 -8 -142 15 -24 16 -33 2 -25 -18 12 -31 -28 -23 -74 1
-9 4 -52 5 -95 2 -44 9 -80 16 -80 7 0 14 -22 16 -49 3 -27 6 -56 7 -65 10
-61 -48 -98 -67 -42 -8 24 -55 5 -55 -23 0 -9 27 -27 60 -41 35 -15 65 -45 72
-73 28 -107 50 -36 47 148 -4 206 -12 246 -43 202 -15 -22 -17 -21 -10 3 5 17
19 28 31 25 16 -3 23 56 23 191 0 278 78 832 141 997 11 27 19 74 19 104 0 30
8 64 18 74 28 29 82 228 82 303 0 45 9 66 30 66 28 0 40 44 33 125 -1 19 9 35
23 35 14 0 40 41 59 90 32 88 32 90 -8 90 -34 0 -39 -9 -29 -50z"/>
<path d="M7913 7155 c25 -130 105 -186 124 -86 7 36 5 36 -27 4 -19 -19 -40
-29 -47 -23 -6 7 0 19 14 28 19 12 17 29 -11 79 -46 81 -68 80 -53 -2z"/>
<path d="M6703 7127 c-13 -15 -20 -27 -14 -27 5 0 1 -25 -11 -55 l-21 -55 43
45 c23 25 37 54 30 65 -7 11 2 20 19 20 17 0 31 8 31 17 0 26 -49 19 -77 -10z"/>
<path d="M1492 6957 c9 -15 16 -45 14 -67 -2 -26 0 -29 6 -8 7 23 26 29 64 22
65 -11 57 -1 -33 45 -47 24 -62 26 -51 8z"/>
<path d="M2856 6852 c9 -34 13 -35 34 -6 14 20 39 28 67 21 23 -7 43 -3 43 8
0 11 -35 19 -77 18 -65 -3 -75 -9 -67 -41z"/>
<path d="M4340 6837 c0 -9 9 -17 20 -17 11 0 20 -9 20 -19 0 -11 -16 -15 -35
-9 -30 9 -30 8 2 -13 30 -19 41 -18 55 4 10 16 9 30 -3 34 -10 3 -15 13 -10
21 5 9 -4 15 -20 15 -16 0 -29 -7 -29 -16z"/>
<path d="M2115 6799 c54 -21 60 -39 9 -26 -36 10 -100 -84 -75 -109 6 -6 11
-2 12 8 1 50 58 94 88 69 26 -22 31 -20 31 14 0 39 -37 66 -87 64 -12 -1 -3
-10 22 -20z"/>
<path d="M1172 6749 c-18 -48 -14 -63 8 -29 11 17 20 20 20 8 0 -13 21 -18 50
-13 28 5 50 19 50 29 0 11 -15 15 -33 8 -17 -7 -43 -3 -57 8 -18 15 -29 12
-38 -11z"/>
<path d="M1893 6650 c-7 -16 -37 -31 -67 -31 -48 -2 -51 -4 -16 -17 23 -9 55
-7 75 6 38 24 63 72 37 72 -10 0 -23 -13 -29 -30z"/>
<path d="M4148 6622 c-25 -26 -1 -38 42 -22 28 10 50 11 50 2 0 -10 13 -23 30
-29 24 -9 25 -5 6 25 -20 33 -103 48 -128 24z"/>
<path d="M1160 6580 c-25 -22 -36 -40 -23 -40 13 0 23 -9 23 -20 0 -11 -13
-20 -28 -20 -21 0 -17 -13 14 -49 46 -51 77 -53 34 -1 -18 22 -19 37 -3 57 13
15 16 33 8 41 -8 9 3 28 24 44 21 15 29 28 18 28 -12 0 -42 -18 -67 -40z"/>
<path d="M1920 6580 c-23 -16 -19 -19 20 -15 42 4 49 -3 48 -50 -2 -30 6 -55
15 -55 21 0 14 77 -10 115 -18 30 -33 31 -73 5z"/>
<path d="M4058 6590 c-2 -5 -5 -21 -6 -35 -2 -14 -15 -23 -29 -20 -14 4 -20
-3 -13 -15 20 -32 46 -23 60 20 7 22 21 35 31 29 11 -6 19 -2 19 10 0 21 -58
31 -62 11z"/>
<path d="M5585 6575 c4 -11 27 -29 52 -38 29 -10 41 -9 33 3 -7 11 3 20 22 20
53 0 26 15 -48 27 -42 6 -64 2 -59 -12z"/>
<path d="M2440 6388 c-294 -396 -659 -948 -660 -998 0 -25 807 -141 840 -120
18 11 20 -14 7 -103 -27 -201 -13 -544 28 -689 37 -130 173 -398 202 -398 14
0 106 297 181 590 47 179 158 548 182 600 10 22 28 81 41 130 12 50 41 143 64
208 l43 119 -69 51 c-364 276 -556 477 -656 688 l-56 120 -147 -198z m277
-148 c10 0 23 -19 29 -42 7 -27 21 -37 38 -29 14 8 -1 -9 -33 -37 -33 -27 -53
-57 -44 -66 8 -8 21 -6 29 5 21 28 104 35 104 8 0 -12 -17 -27 -39 -33 -23 -6
-34 -21 -27 -39 9 -24 17 -23 49 5 20 19 43 28 50 21 8 -7 3 -13 -10 -13 -12
0 -23 -10 -23 -22 0 -12 14 -17 30 -11 41 16 38 -7 -5 -39 -29 -23 -30 -27 -4
-27 17 -1 42 10 55 23 19 19 24 17 24 -8 0 -17 14 -37 30 -43 17 -7 30 -25 30
-41 0 -16 20 -32 45 -36 25 -3 42 -14 38 -24 -4 -10 8 -27 26 -36 17 -10 27
-26 21 -36 -6 -9 -1 -23 10 -30 12 -7 19 -2 15 11 -3 13 6 28 19 33 15 5 22
-14 20 -58 -3 -40 6 -67 21 -68 14 -2 35 -4 47 -5 12 -2 1 -22 -25 -45 -26
-22 -36 -36 -23 -29 13 6 30 1 38 -12 8 -13 6 -18 -6 -10 -12 7 -37 -9 -57
-36 -30 -39 -44 -44 -75 -28 -28 15 -35 15 -25 -1 8 -13 -1 -22 -19 -22 -18 0
-27 -9 -20 -20 7 -11 -3 -20 -22 -20 -50 0 -27 -16 42 -28 32 -6 63 -3 70 8 6
10 23 11 40 0 35 -22 21 -38 -41 -50 -59 -12 -83 -51 -53 -87 19 -24 26 -20
37 19 13 46 19 41 24 -22 3 -34 -30 -80 -50 -68 -18 11 -40 -52 -26 -74 6 -10
-7 -44 -30 -76 -46 -66 -57 -111 -12 -51 27 36 30 36 30 3 1 -19 -13 -41 -31
-47 -25 -10 -26 -16 -5 -29 22 -14 21 -17 -3 -18 -19 0 -32 -22 -34 -60 -2
-33 -16 -80 -29 -105 -14 -25 -23 -53 -21 -62 3 -10 -5 -30 -18 -45 -18 -22
-17 -28 5 -28 21 -1 21 -5 -3 -20 -26 -17 -17 -27 20 -24 6 0 11 -22 13 -51 2
-33 -3 -42 -13 -25 -12 19 -21 16 -37 -14 -15 -29 -15 -47 3 -66 19 -21 17
-23 -13 -13 -26 9 -34 5 -28 -12 5 -14 16 -47 23 -75 l14 -50 -32 50 -32 50 9
-60 c16 -104 -41 -1 -71 128 -28 121 -35 573 -12 725 14 92 13 95 -55 135 -38
23 -78 64 -89 92 -18 47 -60 70 -60 32 0 -36 -62 -40 -96 -7 -81 79 -113 98
-98 59 8 -22 6 -31 -6 -24 -11 7 -20 4 -20 -7 0 -10 -13 -24 -29 -30 -19 -7
-25 -1 -18 18 6 16 19 29 29 29 10 0 18 9 18 20 0 11 -20 16 -45 11 -25 -4
-49 -9 -55 -10 -5 -1 4 -10 20 -21 18 -12 20 -20 6 -20 -13 0 -29 8 -35 18 -6
10 -31 14 -56 8 -34 -7 -38 -5 -17 10 21 15 15 19 -25 17 -29 -2 -53 -10 -53
-18 0 -8 -13 -15 -30 -15 -21 0 -30 21 -30 70 0 42 -10 71 -25 72 -20 1 -20 3
0 11 14 6 20 19 13 30 -7 11 12 14 45 7 51 -10 52 -9 12 9 -53 23 -61 51 -10
33 32 -11 33 -10 1 14 -30 24 -30 28 10 53 39 24 41 24 18 -3 -20 -26 -20 -33
5 -43 18 -7 29 -1 26 13 -3 13 10 23 29 21 27 -2 29 5 11 33 -29 47 -6 100 44
100 23 0 41 13 41 30 0 17 9 30 20 30 11 0 12 17 2 45 -21 56 16 97 75 82 36
-10 44 0 56 76 7 48 17 76 22 62 5 -14 17 -25 27 -25 27 0 22 55 -7 67 -15 6
-11 10 10 11 36 2 44 -30 23 -86 -7 -18 -20 -27 -30 -21 -10 6 -12 -3 -5 -21
6 -17 17 -27 22 -21 6 6 22 -5 36 -24 14 -19 32 -28 41 -20 8 8 -2 33 -22 55
-29 32 -31 45 -10 70 14 16 17 30 7 31 -9 0 1 14 23 31 28 22 31 30 10 27 -76
-10 -130 1 -100 20 18 12 37 12 48 1 12 -12 29 -11 46 3 31 26 29 27 68 -56
l29 -63 21 66 c17 52 15 64 -5 56 -15 -6 -22 -18 -16 -28 6 -10 2 -18 -10 -18
-29 0 -26 15 14 69 33 44 36 45 49 9 8 -21 23 -38 33 -38z"/>
<path d="M2413 5950 c7 -18 0 -30 -19 -30 -16 0 -34 -18 -40 -40 -7 -26 0 -40
17 -40 18 0 23 12 15 35 -12 33 -11 33 27 0 22 -19 48 -35 57 -35 10 0 0 13
-21 28 -21 16 -33 35 -25 43 8 7 29 -1 47 -20 54 -53 59 -18 7 38 -54 57 -82
66 -65 21z"/>
<path d="M3970 6480 c-17 -27 6 -60 41 -60 16 0 29 -14 29 -31 0 -17 9 -26 20
-19 35 22 22 49 -31 62 -33 8 -48 23 -41 40 12 32 0 37 -18 8z"/>
<path d="M1620 6404 c0 -42 10 -56 43 -59 32 -2 37 3 20 20 -13 13 -23 39 -23
59 0 20 -9 36 -20 36 -11 0 -20 -25 -20 -56z"/>
<path d="M5000 6397 c0 -9 11 -18 25 -18 14 -1 7 -10 -15 -19 -31 -13 -21 -18
45 -19 47 0 85 7 85 17 0 10 -18 14 -40 8 -26 -7 -40 -1 -40 18 0 16 -13 29
-30 29 -16 0 -30 -7 -30 -16z"/>
<path d="M1120 6359 c0 -18 29 -27 65 -21 8 1 15 -13 15 -31 0 -19 5 -28 12
-22 23 24 -13 87 -52 90 -22 1 -40 -6 -40 -16z"/>
<path d="M4080 6338 c0 -10 42 -18 93 -18 52 0 90 4 85 9 -18 18 -178 27 -178
9z"/>
<path d="M1437 6262 c-26 -21 -42 -44 -35 -51 21 -21 74 10 84 50 13 48 10 48
-49 1z"/>
<path d="M3885 6285 c-14 -4 -24 -23 -23 -42 1 -20 5 -24 11 -8 6 14 40 25 77
25 37 0 71 -11 76 -25 5 -14 16 -18 25 -10 42 39 -90 87 -166 60z"/>
<path d="M7660 6240 c0 -11 9 -20 20 -20 11 0 20 -10 20 -21 0 -12 -9 -16 -20
-9 -11 7 -14 -1 -8 -19 7 -17 21 -26 31 -19 11 7 14 -12 7 -45 -11 -52 -10
-53 13 -17 39 64 38 128 -3 150 -47 25 -60 25 -60 0z"/>
<path d="M7806 6172 c2 -48 10 -84 18 -79 18 11 12 167 -7 167 -8 0 -13 -40
-11 -88z"/>
<path d="M742 6195 c28 -25 47 -58 42 -75 -10 -33 -7 -30 36 30 16 22 21 34
12 26 -9 -7 -35 4 -58 25 -23 22 -51 39 -63 39 -11 0 2 -20 31 -45z"/>
<path d="M4640 6207 c0 -22 89 -104 103 -95 29 18 18 47 -13 35 -20 -8 -30 1
-30 28 0 21 -13 38 -30 38 -16 0 -30 -3 -30 -6z"/>
<path d="M1170 6179 c-24 -38 23 -65 84 -48 48 13 50 17 16 24 -22 5 -50 18
-63 28 -15 12 -28 11 -37 -4z"/>
<path d="M1629 6156 c-7 -22 -5 -48 6 -59 21 -21 85 -2 85 26 0 11 -8 14 -19
8 -10 -6 -24 -3 -31 9 -7 11 1 20 18 20 50 0 51 30 1 33 -32 2 -52 -11 -60
-37z"/>
<path d="M3449 6178 c-30 -48 108 -79 171 -38 22 14 7 19 -56 20 -52 0 -82 8
-74 20 7 11 3 20 -8 20 -11 0 -26 -10 -33 -22z"/>
<path d="M3720 6180 c0 -18 15 -23 53 -18 7 1 21 -12 31 -29 10 -19 30 -26 50
-19 32 13 -40 57 -79 49 -8 -2 -15 6 -15 17 0 11 -9 20 -20 20 -11 0 -20 -9
-20 -20z"/>
<path d="M7527 6036 c2 -96 -1 -165 -8 -154 -7 10 -21 -22 -33 -72 -15 -67
-15 -89 2 -84 12 5 20 29 17 55 -3 26 0 41 6 34 7 -6 29 3 50 21 28 24 32 36
14 48 -19 12 -19 15 1 16 15 0 21 9 14 20 -7 12 -21 15 -31 9 -11 -6 -19 -1
-19 11 0 14 29 20 75 16 59 -5 74 -14 69 -41 -3 -19 4 -35 15 -35 21 0 29 27
22 75 -4 32 33 33 44 1 4 -14 13 -9 22 13 12 33 6 35 -67 23 -73 -11 -83 -8
-100 38 -25 65 -45 65 -28 0 8 -31 4 -50 -10 -50 -31 0 -28 154 3 167 16 6 12
10 -8 11 -19 1 -38 13 -44 27 -5 14 -8 -53 -6 -149z"/>
<path d="M919 6100 c-2 -16 -3 -36 -2 -44 2 -8 -13 -10 -32 -3 -28 8 -29 7 -7
-9 29 -21 102 9 102 42 0 9 -8 11 -18 5 -10 -6 -23 0 -29 14 -7 18 -11 16 -14
-5z"/>
<path d="M1740 6076 c0 -9 36 -16 80 -16 44 0 80 9 80 19 0 10 -36 17 -80 16
-44 -2 -80 -11 -80 -19z"/>
<path d="M3565 6015 c3 -14 -12 -24 -32 -22 -35 3 -36 1 -5 -30 23 -23 38 -26
48 -11 8 12 25 26 39 30 17 5 12 17 -15 33 -32 20 -39 20 -35 0z"/>
<path d="M847 5990 c0 -16 9 -30 21 -30 12 0 10 -8 -5 -18 -21 -13 -18 -23 17
-48 41 -29 40 -89 -1 -63 -11 6 -19 -4 -19 -22 0 -26 6 -29 27 -12 15 13 31
19 36 14 5 -5 10 9 12 31 1 22 -10 45 -26 51 -16 6 -29 20 -29 30 0 11 9 14
20 7 32 -20 23 8 -17 51 -28 31 -36 33 -36 9z"/>
<path d="M1437 5966 c-51 -123 -37 -143 22 -31 21 41 40 68 40 59 1 -9 -8 -33
-19 -54 -14 -27 -13 -42 5 -52 14 -8 19 -7 11 1 -26 29 24 95 61 81 21 -8 26
-6 13 7 -54 51 -110 46 -133 -11z"/>
<path d="M3170 5979 c-28 -12 -11 -16 60 -11 55 4 75 3 45 -2 -30 -5 -55 -13
-55 -19 0 -21 56 -65 68 -53 6 7 12 2 12 -11 0 -33 169 -112 208 -97 47 18 40
61 -8 48 -22 -6 -40 -2 -40 8 0 10 16 18 35 18 30 1 31 3 5 20 -43 28 -56 25
-66 -15 -7 -25 -10 -22 -12 12 -1 33 -11 44 -32 36 -16 -7 -30 -3 -30 8 0 10
9 19 19 19 11 0 15 14 8 30 -13 34 -149 40 -217 9z"/>
<path d="M7090 5920 c-7 -11 -6 -30 2 -43 9 -15 19 -12 32 10 14 26 25 28 56
8 21 -13 45 -17 54 -8 8 8 2 24 -15 34 -39 24 -114 24 -129 -1z"/>
<path d="M6537 5774 c-13 -14 -52 -23 -86 -20 l-61 6 60 -28 c67 -31 80 -28
111 29 23 45 12 51 -24 13z"/>
<path d="M6665 5747 c-26 -11 -36 -87 -11 -87 19 0 186 82 186 92 0 11 -144 7
-175 -5z"/>
<path d="M7080 5731 c0 -17 -13 -31 -30 -31 -16 0 -30 -9 -30 -21 0 -14 12
-14 38 0 28 15 42 14 49 -4 5 -14 11 -5 11 19 1 24 -7 49 -18 56 -11 7 -20 -2
-20 -19z"/>
<path d="M1222 5672 c-25 -30 -3 -56 54 -65 22 -3 22 2 0 28 -14 17 -23 35
-19 40 19 24 -15 22 -35 -3z"/>
<path d="M5473 5667 c-20 -20 -16 -51 5 -38 26 16 44 -44 30 -100 -9 -34 -3
-52 20 -61 38 -15 43 -68 6 -68 -28 0 -34 -86 -8 -113 9 -9 11 -1 4 16 -8 21
1 35 27 42 28 7 37 2 29 -17 -5 -16 0 -28 12 -28 12 0 22 10 22 21 0 12 9 16
20 9 25 -15 25 -32 0 -70 -18 -27 -22 -27 -40 0 -17 26 -19 25 -20 -5 0 -22
15 -35 40 -35 22 0 40 -9 40 -20 0 -11 -20 -16 -45 -11 -25 4 -52 9 -60 10 -8
0 -15 15 -15 33 0 21 -11 28 -32 20 -17 -7 -35 -12 -40 -12 -46 0 14 -39 95
-61 90 -24 97 -30 55 -42 l-48 -13 53 -2 c43 -2 52 -11 50 -50 -3 -42 -11 -46
-78 -40 -43 4 -75 -2 -75 -14 0 -11 16 -19 35 -17 70 7 85 -2 85 -52 0 -36 9
-49 33 -45 18 3 36 -4 40 -16 5 -13 -17 -19 -57 -15 -37 3 -50 1 -31 -5 19 -6
35 -30 35 -52 0 -23 16 -54 35 -69 27 -21 28 -25 4 -16 -18 6 -48 -9 -70 -35
-39 -45 -39 -45 0 -16 35 27 37 27 26 -4 -9 -24 -5 -31 15 -23 19 7 27 -3 25
-31 -2 -27 -22 -45 -59 -53 -59 -13 -72 -37 -33 -61 14 -8 18 -5 10 7 -13 21
45 54 63 35 6 -5 2 -10 -9 -10 -11 0 -21 -29 -23 -65 -5 -119 -14 -175 -27
-175 -12 0 -36 -116 -38 -185 -1 -19 -10 -35 -20 -35 -11 0 -19 -22 -19 -50 0
-34 -11 -50 -35 -51 -27 -1 -24 -6 10 -20 25 -10 45 -24 45 -32 0 -7 -6 -8
-13 -1 -17 17 -110 -135 -145 -236 -15 -44 -48 -109 -74 -144 -27 -35 -48 -71
-48 -80 -1 -27 -76 -116 -99 -116 -11 0 -22 -9 -23 -20 -4 -41 -41 -91 -59
-79 -10 6 -19 1 -19 -11 0 -12 -9 -17 -20 -10 -12 7 -19 5 -15 -4 7 -23 -119
-145 -134 -130 -7 7 -18 -8 -24 -32 -7 -25 -27 -44 -48 -44 -20 0 -48 -17 -63
-37 -33 -47 -141 -103 -215 -112 -59 -8 -141 -44 -141 -63 0 -6 10 -4 23 4 15
9 18 5 9 -9 -8 -13 -23 -19 -33 -13 -10 7 -43 -1 -73 -16 -31 -15 -72 -23 -91
-19 -19 4 -35 -2 -35 -15 0 -12 -16 -21 -35 -18 -19 2 -60 -6 -91 -19 -67 -27
-194 -31 -194 -5 0 10 -16 15 -35 12 -19 -4 -42 -8 -51 -8 -9 -1 -12 -10 -6
-19 11 -17 -69 -10 -128 11 -16 6 -57 13 -90 16 -72 6 -112 16 -143 35 -13 8
-28 1 -34 -15 -7 -17 -26 -30 -43 -30 -25 0 -26 -7 -7 -37 26 -42 9 -113 -23
-93 -11 7 -20 -1 -20 -17 0 -16 11 -35 25 -42 14 -6 7 -8 -15 -4 -31 5 -41 -5
-43 -45 -5 -104 -16 -142 -41 -142 -14 0 -26 -11 -26 -25 -1 -18 -5 -18 -18 2
-13 21 -26 22 -59 4 -25 -13 -43 -14 -43 -3 0 10 11 23 25 29 29 12 -28 18
-118 14 -43 -3 -73 10 -100 43 -34 43 -64 55 -152 62 -19 1 -35 9 -35 16 0 20
-68 11 -87 -12 -9 -11 -12 5 -7 35 5 31 1 61 -9 67 -9 6 -17 -7 -17 -28 0 -23
-17 -44 -40 -50 -22 -6 -40 -4 -40 4 0 7 -17 13 -39 13 -21 0 -34 -7 -28 -15
5 -9 22 -16 37 -16 14 0 30 -9 33 -20 4 -11 32 -22 62 -24 30 -3 55 -11 55
-20 0 -8 36 -24 79 -36 169 -45 381 -120 488 -173 61 -30 115 -51 119 -46 3 5
31 90 61 189 30 99 57 189 61 200 3 11 12 44 21 74 8 29 25 50 38 45 13 -4
130 -17 261 -29 986 -88 1770 598 1988 1740 55 289 44 773 -18 811 -10 6 -18
33 -18 60 0 76 -64 181 -105 173 -44 -9 -47 47 -4 64 27 10 28 17 5 41 -66 73
-79 94 -68 105 13 14 -25 66 -47 66 -8 0 -20 -6 -28 -13z"/>
<path d="M6354 5647 c-20 -20 5 -47 44 -47 19 0 35 14 35 30 0 30 -55 42 -79
17z"/>
<path d="M7599 5612 c16 -20 16 -33 2 -41 -12 -8 -21 -22 -21 -33 0 -11 8 -15
18 -9 10 6 23 -3 29 -19 7 -17 28 -29 47 -28 28 1 30 4 6 13 -43 16 -60 49
-51 100 6 31 -1 45 -23 45 -24 0 -26 -6 -7 -28z"/>
<path d="M8152 5583 c-16 -26 9 -143 31 -143 11 0 13 33 5 75 -15 87 -20 95
-36 68z"/>
<path d="M6989 5525 c8 -25 5 -45 -6 -45 -29 0 -42 -50 -20 -82 15 -23 18 -22
13 6 -3 19 9 46 28 60 31 24 31 30 3 66 -31 39 -31 39 -18 -5z"/>
<path d="M6090 5458 c-55 -8 -65 -14 -30 -17 l50 -4 -45 -21 c-25 -12 -45 -30
-45 -40 0 -9 29 -2 65 17 36 19 83 33 105 30 23 -3 31 2 20 11 -11 9 -24 21
-30 27 -5 6 -46 5 -90 -3z"/>
<path d="M1665 5356 c11 -52 84 -97 97 -59 7 18 8 44 3 58 -12 32 -107 33
-100 1z"/>
<path d="M4144 5311 c-21 -27 -46 -43 -55 -35 -8 8 -9 2 0 -13 9 -16 -1 -41
-27 -66 -30 -28 -38 -48 -25 -71 26 -46 4 -106 -38 -106 -31 0 -34 -9 -18 -65
23 -80 23 -93 1 -57 -14 22 -23 18 -42 -18 -20 -37 -28 -40 -44 -18 -16 23
-18 23 -11 -2 5 -18 28 -28 57 -24 42 4 44 3 13 -17 -20 -12 -31 -30 -24 -40
20 -33 -32 -109 -54 -77 -12 19 -14 10 -5 -27 12 -55 -21 -124 -51 -106 -8 5
-13 -23 -10 -63 3 -52 17 -79 52 -98 67 -38 27 -34 -46 3 -33 18 -66 27 -72
20 -7 -6 -1 -11 12 -11 13 0 23 -13 23 -30 0 -16 14 -30 30 -30 40 0 38 -20
-5 -52 -33 -25 -33 -27 1 -27 20 -1 31 -9 25 -19 -6 -10 0 -23 14 -29 14 -5 4
-11 -21 -11 -30 -1 -41 6 -32 21 10 16 -3 20 -40 13 -29 -6 -58 -3 -64 7 -6 9
8 17 31 17 45 0 55 49 20 100 -15 22 -17 16 -7 -25 10 -47 6 -55 -30 -55 -74
0 -53 -73 25 -88 85 -16 93 -92 13 -114 -28 -8 -35 -15 -17 -16 38 -2 37 -72
0 -72 -13 0 -23 -7 -23 -15 0 -8 0 -25 0 -37 0 -12 14 -17 30 -11 25 10 27 5
11 -26 -12 -21 -16 -52 -9 -69 9 -23 0 -28 -40 -21 -29 6 -52 1 -52 -11 0 -11
8 -20 17 -20 22 0 63 -91 63 -140 0 -67 52 -100 119 -74 32 12 54 29 49 38 -6
9 4 16 22 16 18 0 27 9 20 20 -19 31 -90 23 -90 -10 0 -17 -18 -30 -40 -30
-42 0 -59 86 -22 109 16 9 26 46 50 185 5 24 14 53 21 64 19 30 351 1235 351
1273 0 4 17 5 39 4 21 -2 37 -12 35 -24 -7 -35 80 -35 94 0 10 27 4 32 -30 23
-23 -6 -37 -6 -30 1 6 6 0 25 -13 42 -21 26 -19 28 11 17 23 -9 31 -6 23 8 -8
12 -30 17 -51 12 -21 -6 -43 -2 -49 8 -19 30 -44 21 -85 -31z"/>
<path d="M1640 5250 c0 -27 -1 -57 -3 -65 -1 -8 22 -27 52 -42 44 -21 52 -36
42 -75 -7 -27 -3 -48 9 -48 11 0 20 32 20 70 0 39 -7 69 -15 68 -38 -6 -93 6
-69 16 20 7 20 16 2 38 -18 22 -16 28 10 28 17 0 32 -9 32 -20 0 -11 14 -20
30 -20 17 0 30 9 30 20 0 11 -13 20 -30 20 -16 0 -30 10 -30 21 0 12 -9 16
-20 9 -11 -7 -20 -3 -20 9 0 11 -9 21 -20 21 -11 0 -20 -22 -20 -50z"/>
<path d="M2444 5194 c-31 -33 -41 -64 -35 -110 7 -59 4 -64 -50 -64 -33 0 -59
-8 -59 -19 0 -10 21 -15 47 -10 47 9 49 5 58 -91 3 -27 12 -61 21 -75 9 -13 4
-45 -10 -70 -28 -50 -38 -158 -12 -143 9 6 16 -8 16 -31 0 -22 7 -41 15 -41
25 0 91 -135 77 -157 -7 -11 -4 -26 6 -32 11 -7 29 4 41 24 18 29 20 24 13
-25 -5 -33 -9 -67 -10 -75 -1 -8 -27 -16 -57 -17 -39 -2 -44 -6 -17 -12 99
-26 154 58 109 168 -13 31 -25 74 -27 96 -2 22 -13 59 -26 82 -14 26 -21 152
-18 345 4 320 -3 342 -82 257z"/>
<path d="M938 5205 c-2 -8 -2 -22 0 -30 1 -9 -21 -12 -49 -6 -42 7 -48 4 -30
-18 13 -15 17 -50 10 -79 -14 -55 21 -120 53 -101 30 19 20 48 -12 36 -35 -13
-42 43 -9 64 12 7 17 26 11 41 -6 15 -3 28 7 28 10 0 22 -11 28 -25 5 -14 11
4 11 40 2 56 -14 93 -20 50z"/>
<path d="M4282 5123 c-11 -21 -38 -117 -60 -215 -21 -98 -62 -254 -91 -348
-223 -731 -252 -860 -196 -860 103 1 195 112 153 185 -8 14 -7 18 3 9 10 -9
28 27 41 80 13 53 39 155 57 226 18 72 43 171 55 220 12 50 29 99 36 110 8 11
34 92 57 180 24 88 56 202 72 254 l28 93 -67 52 c-65 49 -69 50 -88 14z"/>
<path d="M602 5057 c-1 -41 -13 -78 -27 -83 -19 -7 -20 -15 -1 -34 27 -29 57
87 40 153 -5 20 -10 4 -12 -36z"/>
<path d="M5261 5089 c17 -21 30 -25 35 -11 10 29 59 28 69 -2 4 -12 18 -16 31
-8 45 27 24 42 -69 48 -85 6 -91 3 -66 -27z"/>
<path d="M5456 5096 c27 -27 124 -38 124 -14 0 10 -7 19 -15 20 -101 16 -129
14 -109 -6z"/>
<path d="M1307 5050 c2 -27 12 -50 23 -50 11 0 21 23 23 50 2 29 -8 50 -23 50
-15 0 -25 -21 -23 -50z"/>
<path d="M745 5047 c-39 -16 -29 -54 25 -93 40 -29 47 -30 37 -5 -6 17 -20 31
-30 31 -11 0 -14 18 -7 40 7 22 10 39 6 38 -3 0 -17 -6 -31 -11z"/>
<path d="M1071 4991 c22 -17 50 -30 64 -30 14 -1 26 -17 27 -36 1 -25 4 -27
12 -7 12 30 -66 101 -113 102 -20 0 -17 -9 10 -29z"/>
<path d="M1756 4983 c-23 -23 -28 -44 -16 -63 22 -35 30 -27 48 45 15 64 13
64 -32 18z"/>
<path d="M674 4920 c10 -36 6 -44 -18 -35 -23 9 -28 0 -21 -37 6 -26 23 -48
39 -48 15 0 23 -9 16 -20 -7 -11 4 -20 24 -19 33 0 32 4 -6 35 -34 28 -38 44
-21 80 14 32 13 52 -3 68 -16 16 -19 9 -10 -24z"/>
<path d="M845 4920 c5 -52 74 -73 89 -27 5 14 -7 21 -28 18 -20 -3 -43 9 -51
27 -10 22 -13 17 -10 -18z"/>
<path d="M4498 4942 c15 -10 21 -28 13 -40 -7 -12 -4 -22 7 -22 11 0 16 -13 9
-30 -7 -20 1 -30 26 -31 34 -2 34 -3 -3 -19 -34 -15 -35 -17 -5 -19 19 0 35
-9 35 -20 0 -10 -16 -22 -35 -27 -22 -6 -14 -10 20 -12 35 -1 55 -13 55 -32 0
-34 -31 -40 -50 -10 -7 11 -21 20 -33 20 -11 0 -4 -16 15 -35 33 -32 33 -35 2
-41 -42 -8 -45 -64 -4 -64 17 0 30 10 30 22 0 12 13 17 29 11 21 -8 25 -1 17
23 -9 27 -7 29 14 10 18 -17 20 -32 6 -50 -33 -41 -48 -176 -20 -176 16 -1 14
-7 -4 -18 -15 -10 -22 -32 -16 -50 7 -18 4 -32 -7 -32 -10 0 -19 -16 -19 -35
-1 -29 -4 -30 -19 -6 -10 17 -25 23 -33 16 -8 -8 2 -33 23 -56 31 -34 31 -39
4 -28 -18 7 -49 3 -69 -9 -35 -20 -35 -21 0 -21 30 -1 27 -9 -18 -51 -30 -27
-62 -50 -71 -50 -9 0 -17 -14 -17 -31 0 -17 -9 -26 -20 -19 -11 7 -20 1 -20
-12 0 -25 -146 -178 -170 -178 -7 0 -28 -15 -45 -33 -31 -30 -29 -31 16 -17
453 140 706 790 436 1118 -33 40 -71 72 -83 72 -16 -1 -14 -7 4 -18z"/>
<path d="M985 4887 c-24 -10 -36 -67 -14 -67 7 0 29 9 50 21 69 37 39 76 -36
46z"/>
<path d="M5051 4881 c-7 -11 -27 -14 -45 -7 -24 9 -28 5 -16 -14 12 -20 8 -23
-17 -14 -18 7 -33 5 -33 -4 0 -24 145 -24 181 -1 25 17 25 22 -1 39 -38 25
-55 25 -69 1z"/>
<path d="M783 4822 c-23 -14 -23 -19 0 -28 22 -9 22 -15 -3 -34 -26 -20 -25
-22 5 -13 19 7 35 3 35 -8 0 -10 9 -19 20 -19 29 0 25 33 -9 66 -16 16 -24 35
-17 42 18 17 1 14 -31 -6z"/>
<path d="M4825 4795 c-56 -26 -58 -46 -5 -46 22 0 40 9 40 20 0 12 9 8 19 -8
10 -17 26 -23 34 -15 31 31 -41 71 -88 49z"/>
<path d="M228 4666 c0 -73 3 -123 7 -110 5 13 17 24 28 24 11 0 14 -8 8 -18
-6 -9 3 -29 19 -42 17 -14 30 -37 30 -52 0 -16 9 -28 20 -28 25 0 27 174 2
189 -10 6 -14 31 -10 56 5 25 3 34 -3 20 -7 -14 -22 -19 -34 -12 -12 7 -15 4
-8 -9 8 -11 5 -27 -7 -34 -17 -10 -32 77 -22 135 1 8 -5 15 -14 15 -9 0 -16
-60 -16 -134z"/>
<path d="M553 4730 c-5 -14 12 -35 39 -47 29 -14 48 -15 48 -3 0 11 -11 20
-25 20 -19 1 -18 5 2 18 20 12 17 19 -14 27 -23 6 -45 0 -50 -15z"/>
<path d="M913 4709 c7 -17 17 -26 23 -20 6 6 22 1 36 -11 18 -14 37 -15 62 -1
39 22 31 28 -78 52 -44 9 -53 5 -43 -20z"/>
<path d="M7412 4628 c-7 -17 -7 -40 -1 -50 6 -10 -2 -18 -18 -18 -16 0 -34 14
-40 30 -7 17 -28 29 -47 28 -34 -2 -34 -3 -1 -12 19 -5 35 -25 35 -45 0 -27
14 -36 50 -34 41 2 50 13 50 59 0 33 8 51 20 44 11 -7 20 -3 20 9 0 33 -54 25
-68 -11z"/>
<path d="M855 4600 c-4 -16 -1 -57 7 -90 7 -33 14 -50 16 -38 1 16 21 16 70 1
37 -12 64 -32 59 -44 -5 -12 6 -35 24 -50 29 -24 32 -20 29 42 -8 134 -5 140
51 119 65 -25 74 -25 59 0 -7 11 -1 20 13 20 20 0 20 5 0 25 -20 20 -29 19
-45 -5 -16 -23 -24 -24 -31 -5 -8 19 -25 15 -67 -15 -31 -22 -82 -40 -113 -40
-44 1 -50 5 -27 20 25 16 24 19 -9 20 -28 0 -33 6 -17 22 12 12 54 22 94 22
40 0 77 8 83 18 6 10 -34 16 -89 13 -70 -3 -102 -13 -107 -35z"/>
<path d="M6709 4510 c-28 -21 -30 -27 -7 -19 22 8 36 -3 44 -32 7 -28 20 -38
37 -27 19 12 19 17 1 23 -13 5 -19 17 -13 27 6 10 1 18 -11 18 -12 0 -17 9
-10 20 17 28 4 25 -41 -10z"/>
<path d="M860 4310 c0 -73 9 -130 20 -130 11 0 19 -7 18 -15 -9 -53 3 -66 33
-37 17 18 25 42 17 55 -9 14 -5 18 9 9 14 -9 23 -2 23 17 0 17 -16 31 -35 31
-30 1 -31 4 -5 22 24 17 21 20 -15 12 -35 -8 -45 -1 -45 29 0 22 7 35 15 30
40 -24 60 42 23 74 -56 48 -58 45 -58 -97z"/>
<path d="M245 4407 c-37 -15 -30 -58 10 -59 19 0 55 -7 80 -16 39 -13 45 -8
45 37 0 51 -60 68 -135 38z"/>
<path d="M644 4385 c6 -28 23 -34 87 -28 97 9 119 21 90 50 -17 17 -27 15 -41
-7 -16 -25 -26 -26 -59 -5 -56 35 -85 31 -77 -10z"/>
<path d="M6769 4325 c-38 -28 -20 -75 31 -79 l50 -4 -50 17 c-48 16 -48 17 -5
19 26 1 45 15 45 32 0 32 -36 39 -71 15z"/>
<path d="M6409 4277 c-10 -33 -17 -36 -31 -15 -12 19 -17 20 -18 4 0 -14 18
-34 40 -46 22 -12 40 -35 40 -51 0 -40 39 -37 74 6 26 32 28 30 20 -20 -8 -55
29 -78 56 -35 7 11 4 20 -6 20 -11 0 -24 18 -30 40 -12 47 -50 53 -67 9 -9
-24 -18 -19 -39 21 -14 28 -21 64 -15 81 6 16 6 29 0 29 -5 0 -16 -19 -24 -43z"/>
<path d="M6640 4261 c0 -11 12 -15 26 -10 15 6 25 -6 25 -31 0 -22 -13 -41
-30 -42 -20 -1 -22 -5 -7 -11 14 -6 45 4 70 22 36 25 38 31 11 31 -22 0 -30
11 -22 30 8 21 -2 30 -31 30 -23 0 -42 -9 -42 -19z"/>
<path d="M3617 4202 c23 -14 23 -19 0 -29 -15 -7 -6 -7 21 -1 26 7 42 5 36 -5
-5 -9 11 -17 38 -17 64 0 61 4 -24 40 -80 33 -113 39 -71 12z"/>
<path d="M7135 4206 c-38 -10 -43 -24 -20 -56 17 -23 165 -36 165 -14 -1 49
-78 87 -145 70z"/>
<path d="M768 4081 c1 -15 26 -35 56 -42 42 -12 51 -9 42 15 -7 16 -27 25 -48
20 -20 -5 -39 1 -44 13 -4 13 -7 10 -6 -6z"/>
<path d="M6380 4100 c0 -11 10 -20 21 -20 47 0 -7 -40 -57 -43 -47 -2 -48 -4
-9 -11 25 -5 45 -23 45 -42 0 -22 11 -14 29 22 16 30 24 68 18 85 -13 33 -47
40 -47 9z"/>
<path d="M421 4055 c-1 -36 -61 -51 -61 -15 0 11 -15 20 -34 20 -26 0 -29 -5
-10 -24 13 -13 24 -44 24 -68 0 -30 16 -48 50 -56 32 -8 50 -27 50 -51 0 -50
37 -72 67 -41 17 19 17 27 -1 34 -13 5 -19 22 -13 37 6 16 1 29 -11 29 -12 0
-23 20 -23 45 -2 60 -36 141 -38 90z"/>
<path d="M6882 4003 c-12 -22 -36 -54 -53 -71 -18 -18 -23 -32 -11 -32 11 0
-2 -24 -29 -53 -68 -73 -62 -94 23 -81 55 9 69 6 61 -15 -6 -15 3 -44 18 -64
26 -33 28 -33 17 -2 -7 20 -2 48 11 64 29 35 -23 70 -87 58 -23 -4 -30 -2 -15
5 23 11 23 16 0 32 -18 13 -12 14 21 5 32 -9 43 -6 33 9 -8 13 3 22 29 22 57
0 124 37 109 61 -6 10 3 19 20 19 32 0 43 31 16 46 -60 36 -144 34 -163 -3z"/>
<path d="M3253 3947 c23 -17 22 -84 -3 -157 -13 -38 -12 -38 16 -4 37 45 33
158 -7 169 -19 5 -21 3 -6 -8z"/>
<path d="M3489 3939 c-7 -12 -26 -17 -42 -11 -16 7 -24 3 -18 -7 6 -9 0 -23
-14 -29 -14 -6 -7 -7 15 -2 26 6 61 -9 95 -41 30 -28 55 -41 55 -30 0 12 -18
37 -39 55 -30 25 -34 40 -18 60 15 18 15 26 1 26 -12 0 -28 -10 -35 -21z"/>
<path d="M2793 3888 c10 -24 187 -30 187 -7 0 9 -44 18 -97 22 -65 5 -95 0
-90 -15z"/>
<path d="M3202 3894 c-2 -30 -13 -34 -70 -23 -40 7 -84 3 -105 -10 -30 -19
-23 -21 40 -11 52 9 73 6 64 -9 -7 -11 1 -21 18 -21 17 0 31 -13 31 -30 0 -16
9 -30 21 -30 14 0 14 12 1 37 -14 25 -13 44 1 58 12 12 17 34 11 48 -7 18 -11
15 -12 -9z"/>
<path d="M2654 3871 c-21 -21 -34 -23 -51 -6 -14 14 -23 15 -23 3 0 -53 46
-65 82 -22 20 24 37 33 37 19 1 -14 15 -25 32 -25 28 0 29 3 2 30 -37 37 -43
37 -79 1z"/>
<path d="M342 3821 c-40 -24 -17 -90 33 -97 53 -8 53 -5 19 62 -18 34 -35 46
-52 35z"/>
<path d="M2489 3819 c-6 -10 3 -19 20 -19 43 0 39 -39 -4 -43 -19 -2 -46 -4
-59 -5 -84 -8 -66 -52 20 -52 90 0 94 2 94 58 0 57 -47 98 -71 61z"/>
<path d="M2002 3800 c-1 -38 53 -111 71 -94 7 7 2 25 -10 40 -12 15 -16 35 -8
44 8 9 5 10 -8 3 -13 -7 -28 -2 -34 12 -7 17 -10 16 -11 -5z"/>
<path d="M2303 3682 c-23 -14 -23 -19 0 -28 15 -6 7 -12 -19 -12 -26 -1 -42 5
-37 14 6 9 -9 17 -33 18 -24 1 -32 -3 -18 -8 20 -8 17 -17 -10 -38 -32 -25
-27 -28 50 -24 84 4 109 19 117 71 4 29 -12 31 -50 7z"/>
<path d="M2926 3655 c-87 -97 -77 -121 18 -40 19 17 45 22 60 13 18 -11 17 -4
-3 23 -16 22 -31 41 -32 44 -1 3 -20 -15 -43 -40z"/>
<path d="M511 3662 c-6 -10 0 -23 14 -29 15 -6 12 -10 -9 -11 -51 -3 -59 -31
-29 -102 29 -69 66 -51 43 20 -7 23 -4 40 9 40 11 0 21 -13 21 -29 0 -16 9
-34 19 -40 11 -7 16 11 12 43 -14 108 -50 156 -80 108z"/>
<path d="M2420 3588 c-49 -27 -49 -27 -6 -28 32 0 41 -9 33 -30 -8 -22 -2 -27
22 -18 22 9 27 20 14 33 -11 11 -15 32 -9 47 12 33 11 33 -54 -4z"/>
<path d="M1007 3540 c7 -34 4 -60 -7 -60 -11 0 -19 -20 -18 -45 1 -29 5 -35
12 -15 6 17 30 51 54 77 30 33 33 44 12 40 -18 -4 -29 6 -27 28 1 19 -7 35
-18 35 -12 0 -15 -25 -8 -60z"/>
<path d="M3130 3487 c-18 -28 -28 -55 -22 -62 6 -6 17 4 24 22 7 18 18 29 25
25 7 -4 24 4 37 18 19 21 18 29 -3 37 -16 6 -42 -11 -61 -40z"/>
<path d="M1700 3441 c0 -10 -14 -32 -31 -50 -18 -17 -23 -31 -13 -31 11 0 25
-14 32 -31 9 -25 2 -29 -31 -18 -30 9 -38 6 -27 -11 8 -13 31 -19 51 -14 21 5
40 3 43 -6 3 -9 18 -3 33 13 23 25 22 29 -9 23 -31 -5 -36 6 -31 69 3 41 1 75
-5 75 -7 0 -12 -8 -12 -19z"/>
<path d="M1453 3327 c5 -34 -1 -41 -31 -33 -22 5 -55 -1 -75 -13 -34 -22 -34
-23 5 -15 23 5 57 1 74 -9 23 -13 38 -7 54 23 13 24 14 40 2 40 -10 0 -23 11
-28 25 -4 14 -5 6 -1 -18z"/>
<path d="M2361 3246 c-22 -25 -23 -35 -5 -41 15 -5 19 -28 11 -62 -7 -29 -6
-47 2 -39 9 8 17 44 20 80 2 41 13 64 29 61 14 -4 19 3 12 15 -17 28 -35 24
-69 -14z"/>
<path d="M1722 3115 c-2 -67 3 -75 48 -75 28 0 50 -10 50 -23 0 -13 6 -18 14
-10 7 7 -7 32 -30 54 -24 22 -45 33 -46 25 -2 -9 -10 11 -18 44 -15 60 -15 60
-18 -15z"/>
<path d="M2599 3150 c-2 -11 -2 -45 0 -75 3 -39 -5 -55 -29 -55 -18 0 -27 9
-20 20 7 11 -9 20 -38 20 -70 0 -80 -30 -20 -57 63 -29 108 -29 108 -1 0 14
18 18 45 11 42 -10 43 -9 8 17 -20 15 -33 35 -28 44 6 9 3 34 -6 56 -9 22 -18
31 -20 20z"/>
<path d="M2400 3104 c0 -29 13 -34 71 -28 64 8 67 11 35 36 -52 39 -106 35
-106 -8z"/>
<path d="M1440 3064 c0 -13 8 -24 19 -24 10 0 13 -31 7 -70 -6 -38 -3 -70 6
-70 27 0 21 135 -7 163 -19 19 -25 19 -25 1z"/>
<path d="M6940 2725 c0 -14 -13 -25 -28 -25 -15 0 -33 -13 -39 -30 -8 -21 1
-30 29 -30 22 0 35 9 28 20 -7 11 -4 20 7 20 11 0 24 -11 30 -25 7 -17 10 -15
11 5 1 17 -7 44 -18 60 -13 20 -19 22 -20 5z"/>
<path d="M1060 2221 c0 -22 9 -41 20 -41 11 0 20 -13 20 -30 0 -16 11 -30 23
-30 13 0 18 6 11 13 -8 7 -3 26 9 41 18 21 17 34 -1 52 -19 19 -21 16 -11 -11
8 -20 4 -35 -9 -35 -12 0 -22 13 -22 29 0 16 -9 34 -20 41 -11 7 -20 -6 -20
-29z"/>
<path d="M4720 1960 c-15 -21 -37 -32 -49 -25 -11 7 -8 -3 7 -22 15 -19 29
-31 30 -28 1 3 19 24 39 48 19 24 28 48 18 54 -10 6 -30 -6 -45 -27z"/>
<path d="M1510 1880 c7 -11 49 -20 95 -20 101 0 93 10 -21 28 -57 8 -83 6 -74
-8z"/>
<path d="M1534 1708 c6 -16 22 -28 36 -28 15 0 31 -11 37 -25 5 -14 9 -1 7 28
-2 40 -13 52 -47 52 -29 0 -40 -9 -33 -27z"/>
<path d="M3420 1671 c0 -27 117 -76 138 -58 14 11 -82 87 -111 87 -15 0 -27
-13 -27 -29z"/>
<path d="M3990 1600 c7 -11 -5 -20 -26 -20 -23 0 -44 -17 -50 -40 -12 -46 16
-55 33 -10 7 17 26 30 42 30 17 0 31 14 31 30 0 17 -10 30 -21 30 -12 0 -16
-9 -9 -20z"/>
<path d="M5350 1560 c-57 -14 -57 -15 -10 -19 47 -4 47 -5 10 -22 -36 -16 -35
-18 10 -14 28 3 47 13 43 23 -3 10 6 25 20 34 31 20 11 19 -73 -2z"/>
<path d="M4948 1389 c-18 -27 -28 -56 -21 -63 7 -7 13 -2 13 12 0 13 9 19 20
12 12 -7 19 -1 15 14 -3 15 9 24 30 20 24 -4 31 4 23 25 -17 44 -42 38 -80
-20z"/>
<path d="M3144 1308 c-21 -23 -17 -28 25 -28 44 0 51 -9 53 -65 2 -60 3 -61
16 -15 18 61 5 124 -23 107 -10 -7 -25 -3 -32 8 -8 13 -22 10 -39 -7z"/>
<path d="M4292 1317 c-75 -8 -146 -23 -157 -34 -11 -11 -52 -16 -92 -11 -56 7
-64 4 -33 -10 30 -14 17 -18 -55 -15 -52 2 -95 10 -95 19 0 9 -9 11 -20 4 -12
-7 -16 -21 -10 -30 6 -10 -15 -4 -47 11 -89 45 -279 -14 -201 -62 15 -9 19 -7
11 7 -8 11 -5 27 7 34 11 7 20 3 20 -9 0 -11 14 -21 30 -21 17 0 30 -17 30
-38 0 -35 36 -62 82 -62 34 0 18 37 -22 50 -47 15 -54 90 -9 90 17 0 26 -9 19
-20 -7 -11 1 -15 16 -9 16 6 35 -4 42 -23 12 -32 15 -31 40 3 22 29 34 32 56
14 17 -14 38 -16 57 -4 43 27 65 23 52 -11 -8 -20 1 -30 28 -30 26 0 39 14 39
40 0 32 10 39 50 32 52 -10 88 18 45 34 -14 5 3 9 38 9 53 -1 65 -10 75 -58
10 -53 72 -84 72 -37 0 11 -15 20 -33 20 -19 0 -27 7 -19 15 22 22 60 20 77
-4 10 -14 14 -14 15 1 0 13 21 18 50 13 37 -7 50 -1 50 23 0 17 1 38 1 46 4
29 -75 38 -209 23z"/>
<path d="M4610 1301 c34 -16 35 -18 5 -20 -19 0 -35 -15 -35 -32 0 -28 4 -28
33 1 22 22 50 29 85 20 34 -8 45 -6 32 6 -11 11 -51 25 -90 32 -52 9 -59 7
-30 -7z"/>
<path d="M3389 1282 c6 -10 -16 -27 -48 -39 -51 -17 -57 -16 -48 13 9 29 8 30
-11 4 -34 -48 -26 -70 26 -70 27 0 47 9 45 20 -1 11 27 23 64 26 61 6 65 3 53
-37 -10 -32 -8 -40 10 -29 17 11 20 3 11 -27 -10 -32 -5 -43 20 -43 24 0 29 9
18 35 -9 19 -14 62 -13 95 2 39 -3 51 -14 34 -13 -22 -22 -21 -48 5 -33 33
-84 43 -65 13z"/>
<path d="M4088 1089 c-8 -31 0 -59 21 -81 31 -31 32 -29 20 18 -11 46 -7 50
39 45 67 -7 65 -1 -8 36 -58 29 -60 28 -72 -18z"/>
<path d="M3465 1046 c-36 -14 -31 -66 7 -66 19 0 28 11 22 28 -8 19 0 24 27
17 21 -5 34 -18 28 -27 -6 -10 2 -18 19 -18 28 0 64 36 49 48 -16 14 -129 27
-152 18z"/>
<path d="M3780 1023 c0 -42 -7 -47 -56 -37 -44 9 -56 4 -58 -25 -6 -77 178
-44 187 34 3 36 -2 65 -13 65 -11 0 -20 -11 -20 -25 -1 -17 -7 -15 -20 5 -16
24 -19 21 -20 -17z"/>
<path d="M3280 1000 c0 -11 14 -21 30 -22 29 -3 52 -7 85 -17 8 -3 -7 -12 -35
-21 l-50 -16 55 -2 c56 -2 66 11 40 50 -21 30 -125 54 -125 28z"/>
<path d="M8600 4442 c0 -21 -7 -42 -15 -47 -8 -5 -4 -6 10 -2 14 3 25 -3 25
-14 0 -10 7 -19 17 -19 9 0 15 20 13 45 -2 25 6 52 18 60 13 8 3 15 -23 15
-31 0 -45 -12 -45 -38z"/>
<path d="M8517 4375 c-16 -32 -5 -95 19 -104 43 -17 60 9 20 31 -19 11 -29 32
-23 49 9 23 -5 45 -16 24z"/>
<path d="M8245 3450 c5 -74 10 -79 51 -53 21 13 20 21 -4 41 -16 14 -25 38
-19 53 6 16 1 29 -11 29 -13 0 -20 -29 -17 -70z"/>
<path d="M8710 10140 c-30 -48 -29 -104 1 -79 20 17 29 17 29 1 0 -12 10 -22
23 -22 13 0 8 16 -12 39 -19 21 -29 48 -22 60 7 11 9 21 3 21 -5 0 -15 -9 -22
-20z"/>
<path d="M7960 9782 c0 -13 -8 -20 -17 -14 -21 13 -5 -151 17 -175 8 -9 22 -5
31 8 9 15 7 20 -6 12 -27 -17 -44 120 -17 147 10 10 13 25 6 33 -8 8 -14 3
-14 -11z"/>
<path d="M8835 9767 c14 -6 21 -17 16 -25 -5 -8 11 -14 35 -12 24 2 50 -6 58
-18 10 -15 22 -13 40 6 19 21 20 24 1 14 -16 -9 -25 -2 -25 19 0 25 -7 28 -26
13 -16 -14 -36 -15 -55 -3 -16 10 -38 18 -49 17 -11 -1 -9 -6 5 -11z"/>
</g>
</svg>
